<svg width="1004" height="345" viewBox="0 0 1004 345" fill="none" xmlns="http://www.w3.org/2000/svg">
<g clip-path="url(#clip0_134_8022)">
<path d="M861.418 184.495C857.155 182.596 852.979 180.521 848.861 178.33C809.469 200.771 759.126 229.552 758.133 230.546C758.133 230.546 783.158 270.402 784.764 272.009C785.787 273.031 847.839 228.5 892.459 196.241C882.151 192.238 871.551 189.024 861.447 184.495H861.418Z" fill="#259044"/>
<path d="M862.061 183.326C872.369 187.885 883.232 191.187 893.715 195.307C918.302 177.541 937.283 163.72 937.283 163.72L895.292 151.915C895.292 151.915 875.085 163.398 850.176 177.57C854.089 179.616 858.031 181.544 862.061 183.326Z" fill="#259044"/>
<path d="M789.642 131.023L814.375 197.995L862.703 215.731L801.497 103.819L789.642 131.023Z" fill="#21813C"/>
<path d="M865.36 232.211H829.53L861.418 287.934L910.009 308.417L865.36 232.211Z" fill="#21813C"/>
<path d="M910.009 308.417L881.509 259.737L759.535 331.296L735.561 290.359L750.628 46.9569L805.439 14.8149L904.111 183.21L937.312 163.749L964.908 210.881L931.706 230.341L960.206 278.993L910.038 308.417H910.009ZM799.365 119.539L796.27 121.351L787.889 251.35L853.884 212.634L799.336 119.539H799.365Z" fill="#2EB855"/>
<path d="M695 279.226L735.531 290.359L759.535 331.296L716.667 320.455L695 279.226Z" fill="#259044"/>
<path d="M695 279.226L735.531 290.359L750.599 46.957L713.397 38.0449L695 279.226Z" fill="#3BC462"/>
<path d="M713.396 38.0447L750.599 46.9568L805.41 14.7856L767.74 3.82812L713.396 38.0447Z" fill="#43D16B"/>
<path d="M464.535 301.959C467.63 293.807 470.521 285.508 473.879 277.443C471.631 277.268 469.324 276.976 467.017 276.538C456.183 274.463 446.985 270.051 439.48 263.301C431.946 256.551 426.164 247.99 422.047 237.646C417.959 227.302 415.564 215.526 414.893 202.319C414.221 189.141 415.272 175.203 418.076 160.534C420.937 145.574 425.084 132.162 430.545 120.299C436.005 108.435 442.546 98.442 450.168 90.3189C457.789 82.1957 466.345 76.3809 475.807 72.8745C485.268 69.3682 495.43 68.6377 506.293 70.7123C514.878 72.3486 522.441 75.592 529.011 80.3841C532.165 74.0726 535.582 67.8487 538.823 61.6541C542.648 54.3199 546.211 46.8688 549.628 39.33C551.088 36.1158 552.343 32.7848 553.657 29.5121C542.678 23.2298 530.355 18.7884 516.718 16.1878C497.386 12.5061 479.165 13.1782 462.111 18.2917C445.028 23.3759 429.669 31.9082 416.002 43.8884C402.336 55.8685 390.714 70.8876 381.194 88.9747C371.675 107.062 364.783 127.253 360.52 149.518C356.256 171.813 355.234 193.115 357.424 213.423C359.615 233.73 364.871 251.993 373.164 268.151C381.457 284.339 392.612 297.927 406.599 308.943C419.623 319.228 434.983 326.299 452.65 330.215C456.826 320.864 460.885 311.485 464.506 301.93L464.535 301.959Z" fill="#3BC462"/>
<path d="M615.885 133.827C613.695 113.519 608.439 95.257 600.146 79.0984C591.853 62.9105 580.698 49.3232 566.71 38.3073C562.943 35.3269 558.972 32.6386 554.825 30.2134C553.511 33.486 552.256 36.8171 550.795 40.0021C547.32 47.5116 543.846 54.9919 539.991 62.3261C536.72 68.55 533.275 74.803 530.092 81.173C531.231 82.0496 532.34 82.9262 533.391 83.8904C540.896 90.6402 546.795 99.2017 551.029 109.604C555.263 119.977 557.745 131.694 558.446 144.756C559.147 157.817 558.067 171.813 555.205 186.745C552.402 201.413 548.255 214.737 542.794 226.776C537.304 238.785 530.676 248.837 522.908 256.931C515.141 265.025 506.526 270.81 497.036 274.317C490.057 276.888 482.786 277.969 475.222 277.56C471.514 286.385 468.36 295.472 464.973 304.413C461.615 313.267 457.848 321.916 453.964 330.536C454.84 330.711 455.716 330.887 456.592 331.062C475.923 334.773 494.116 334.072 511.198 328.958C528.252 323.874 543.641 315.342 557.307 303.362C570.974 291.381 582.566 276.362 592.115 258.275C601.635 240.188 608.526 220.026 612.79 197.731C617.053 175.466 618.075 154.135 615.885 133.827Z" fill="#21813C"/>
<path d="M490.758 342.663C471.427 338.952 454.753 331.588 440.765 320.572C426.778 309.556 415.623 295.94 407.33 279.781C399.037 263.593 393.781 245.36 391.59 225.052C389.4 204.744 390.422 183.443 394.686 161.148C398.949 138.883 405.812 118.692 415.36 100.604C424.88 82.5173 436.473 67.4982 450.168 55.518C463.835 43.5379 479.194 35.0056 496.277 29.9214C513.331 24.8371 531.552 24.1358 550.884 27.8175C570.215 31.4992 586.889 38.8919 600.876 49.9078C614.864 60.953 626.019 74.5402 634.312 90.6989C642.605 106.887 647.861 125.12 650.051 145.457C652.241 165.794 651.219 187.096 646.956 209.361C642.693 231.656 635.801 251.818 626.281 269.905C616.762 287.992 605.169 303.011 591.474 314.991C577.807 326.971 562.418 335.504 545.365 340.588C528.282 345.672 510.089 346.373 490.758 342.692V342.663ZM501.183 288.138C511.725 290.154 521.741 289.424 531.231 285.888C540.692 282.382 549.336 276.596 557.104 268.502C564.871 260.408 571.5 250.357 576.99 238.347C582.479 226.338 586.626 212.984 589.4 198.316C592.262 183.355 593.342 169.359 592.642 156.327C591.941 143.295 589.459 131.548 585.224 121.175C580.99 110.802 575.092 102.212 567.587 95.4617C560.053 88.7119 551.03 84.3289 540.488 82.3127C529.654 80.2381 519.492 80.9686 510.002 84.475C500.511 87.9814 491.985 93.7962 484.363 101.919C476.741 110.042 470.2 120.036 464.74 131.899C459.279 143.762 455.133 157.174 452.271 172.135C449.467 186.803 448.416 200.712 449.088 213.919C449.759 227.127 452.125 238.873 456.242 249.246C460.33 259.59 466.141 268.152 473.675 274.901C481.18 281.651 490.379 286.064 501.212 288.138H501.183Z" fill="#2EB855"/>
<path d="M243.987 220.961C240.366 224.321 236.365 227.448 233.095 231.188L185.643 330.361L220.976 284.748L258.5 207.14C253.711 211.786 248.893 216.432 244.016 220.961H243.987Z" fill="#21813C"/>
<path d="M215.837 204.657C219.283 199.952 222.583 194.4 226.496 189.55L143.447 148.963L64.6621 156.853L202.726 220.552C207.252 215.38 211.808 210.15 215.837 204.627V204.657Z" fill="#21813C"/>
<path d="M227.693 190.134C223.283 195.657 219.692 202.173 215.457 207.316C211.661 211.962 207.836 216.578 203.923 221.137L266.677 250.094L289.454 220.318L227.664 190.134H227.693Z" fill="#3BC462"/>
<path d="M133.197 305.232L157.551 254.36L30 193.261L50.4701 150.453L260.486 26.6777L317.779 54.1445L233.533 230.224L268.254 246.85L244.688 296.115L209.968 279.489L185.614 330.361L133.139 305.232H133.197ZM227.664 107.763L224.422 106.214L112.085 172.018L181.088 205.066L227.635 107.734L227.664 107.763Z" fill="#2EB855"/>
<path d="M268.283 246.85L289.483 220.318L272.838 257.282L243.929 297.693L268.283 246.85Z" fill="#21813C"/>
<path d="M260.136 205.65L342.951 23.9897L317.779 54.1155L233.533 230.195C235.869 227.916 258.763 206.994 260.106 205.65H260.136Z" fill="#21813C"/>
<path d="M50.4697 150.454L87.9058 117.844L293.104 0L260.486 26.6778L50.4697 150.454Z" fill="#3BC462"/>
<path d="M260.486 26.6778L317.809 54.1446L342.951 24.0188L293.104 0L260.486 26.6778Z" fill="#43D16B"/>
</g>
<defs>
<clipPath id="clip0_134_8022">
<rect width="1004" height="345" fill="white"/>
</clipPath>
</defs>
</svg>
