<svg width="64" height="64" viewBox="0 0 64 64" fill="none" xmlns="http://www.w3.org/2000/svg">
<g clip-path="url(#clip0_134_8389)">
<path d="M64 32C64 14.3555 49.6459 0 32 0C14.3541 0 0 14.3555 0 32C0 40.7159 3.78862 47.1852 11.2051 51.2806C12.6784 61.611 17.1731 64 32 64C46.4128 64 51.0708 61.7648 52.6731 52.1515C60.1696 48.2747 64 41.5163 64 32Z" fill="#303C42"/>
<path d="M61.0894 35.6668C57.8772 32.6591 56 28.4405 56 24.0002C56 21.7292 56.4898 19.4952 57.4253 17.4336C59.8973 21.7311 61.3332 26.6965 61.3332 32.0002C61.3334 33.2902 61.2369 34.4996 61.0894 35.6668Z" fill="#F2F2F2"/>
<path d="M31.9999 31.9998C39.3637 31.9998 45.3333 26.0302 45.3333 18.6664C45.3333 11.3026 39.3637 5.33301 31.9999 5.33301C24.6361 5.33301 18.6665 11.3026 18.6665 18.6664C18.6665 26.0302 24.6361 31.9998 31.9999 31.9998Z" fill="#F2F2F2"/>
<path d="M6.57463 17.4331C7.51013 19.4947 7.99988 21.7287 7.99988 23.9997C7.99988 28.4061 6.14438 32.6042 2.96763 35.6082C2.78913 34.4524 2.6665 33.2627 2.6665 31.9997C2.6665 26.696 4.10263 21.7307 6.57463 17.4331Z" fill="#F2F2F2"/>
<path d="M32.0001 61.3335C16.3881 61.3335 14.3777 58.7984 13.5183 48.0535C17.3568 43.8972 24.3724 41.3335 32.0001 41.3335C39.6277 41.3335 46.6433 43.8972 50.4818 48.0535C49.6224 58.7982 47.6121 61.3335 32.0001 61.3335Z" fill="#FEE4D0"/>
<path d="M61.0894 35.6668C57.8772 32.6591 56 28.4405 56 24.0002C56 21.7292 56.4898 19.4952 57.4253 17.4336C59.8973 21.7311 61.3332 26.6965 61.3332 32.0002C61.3334 33.2902 61.2369 34.4996 61.0894 35.6668Z" fill="#F2F2F2"/>
<path d="M53.0749 48.873C53.1114 48.479 53.1539 48.1053 53.1848 47.6914C53.2108 47.3411 53.0963 46.9948 52.8697 46.7265C48.6274 41.7551 40.63 38.6666 31.9999 38.6666C23.3698 38.6666 15.3723 41.7551 11.1302 46.7265C10.9035 46.9948 10.789 47.3411 10.815 47.6914C10.8222 47.7864 10.8329 47.8686 10.8403 47.9625C7.26016 45.5715 4.87416 42.4041 3.64966 38.5233C8.04691 34.9903 10.6665 29.6485 10.6665 24C10.6665 20.799 9.79866 17.68 8.22528 14.8861C13.2565 7.91676 21.2567 3.25514 30.3655 2.74964C22.3075 3.57076 15.9999 10.3954 15.9999 18.6666C15.9999 27.4895 23.177 34.6666 31.9999 34.6666C40.8228 34.6666 47.9999 27.4895 47.9999 18.6666C47.9999 10.3953 41.6923 3.57076 33.6342 2.74951C42.743 3.25501 50.7432 7.91664 55.7744 14.886C54.201 17.68 53.3332 20.7989 53.3332 23.9999C53.3332 29.7251 56.014 35.1208 60.5099 38.6523C59.34 43.0713 56.8842 46.4593 53.0749 48.873Z" fill="#2FC158"/>
<path d="M32.0001 61.3335C47.6121 61.3335 49.6224 58.7984 50.4818 48.0535C46.6433 43.8972 39.6277 41.3335 32.0001 41.3335C24.3724 41.3335 17.3568 43.8972 13.5183 48.0535L26.6606 61.1957C28.2376 61.2905 30.0046 61.3335 32.0001 61.3335Z" fill="url(#paint0_linear_134_8389)"/>
<path d="M24.6665 45.3335C23.6274 45.3335 22.6665 45.9794 22.6665 50.6669C22.6665 55.3544 23.6275 56.0002 24.6665 56.0002C25.7055 56.0002 26.6665 55.3544 26.6665 50.6669C26.6665 45.9794 25.7056 45.3335 24.6665 45.3335Z" fill="#303C42"/>
<path d="M39.3333 55.9998C40.3724 55.9998 41.3333 55.3539 41.3333 50.6664C41.3333 45.9789 40.3723 45.333 39.3333 45.333C38.2943 45.333 37.3333 45.9789 37.3333 50.6664C37.3333 55.3539 38.2941 55.9998 39.3333 55.9998Z" fill="#303C42"/>
<path d="M64 32C64 14.3555 49.6459 0 32 0C14.3541 0 0 14.3555 0 32C0 40.7159 3.78862 47.1852 11.2051 51.2806C12.6784 61.611 17.1731 64 32 64C46.4128 64 51.0708 61.7648 52.6731 52.1515C60.1696 48.2747 64 41.5163 64 32Z" fill="url(#paint1_linear_134_8389)"/>
<path opacity="0.1" d="M2.96782 35.6086C3.44907 35.1534 3.88907 34.6629 4.30782 34.1564C3.7707 33.9644 3.25782 33.7485 2.73657 33.541C2.78932 34.2448 2.86382 34.9355 2.96782 35.6086Z" fill="black"/>
<path opacity="0.1" d="M56.1338 25.9483C56.5967 29.658 58.352 33.1034 61.0894 35.6667C61.2369 34.4993 61.3334 33.29 61.3334 32C61.3334 28.4635 60.6458 25.1004 59.4874 21.9624C58.5544 23.3612 57.426 24.692 56.1338 25.9483Z" fill="black"/>
<path opacity="0.1" d="M6.98791 35.0131C6.03166 36.3066 4.92591 37.4981 3.64966 38.5235C4.87416 42.4043 7.26016 45.5718 10.8403 47.9627C10.8329 47.8688 10.8222 47.7866 10.815 47.6916C10.789 47.3413 10.9035 46.995 11.1302 46.7267C15.3724 41.7553 23.3698 38.6668 31.9999 38.6668C40.63 38.6668 48.6275 41.7553 52.8697 46.7267C53.0963 46.995 53.2108 47.3413 53.1848 47.6916C53.1539 48.1055 53.1114 48.4792 53.0749 48.8732C56.8842 46.4595 59.34 43.0715 60.5099 38.6525C57.0835 35.9611 54.7217 32.1843 53.7869 28.0068C46.5678 33.6937 35.6003 37.3335 23.3332 37.3335C17.4973 37.3336 11.9735 36.4883 6.98791 35.0131Z" fill="black"/>
</g>
<defs>
<linearGradient id="paint0_linear_134_8389" x1="22.7552" y1="38.8035" x2="44.7659" y2="60.8139" gradientUnits="userSpaceOnUse">
<stop stop-opacity="0.1"/>
<stop offset="1" stop-opacity="0"/>
</linearGradient>
<linearGradient id="paint1_linear_134_8389" x1="2.72107" y1="19.077" x2="60.3847" y2="45.965" gradientUnits="userSpaceOnUse">
<stop stop-color="white" stop-opacity="0.2"/>
<stop offset="1" stop-color="white" stop-opacity="0"/>
</linearGradient>
<clipPath id="clip0_134_8389">
<rect width="64" height="64" fill="white"/>
</clipPath>
</defs>
</svg>
