<svg width="1920" height="4793" viewBox="0 0 1920 4793" fill="none" xmlns="http://www.w3.org/2000/svg">
<mask id="mask0_134_8286" style="mask-type:alpha" maskUnits="userSpaceOnUse" x="0" y="-15" width="1920" height="4837">
<rect y="-15" width="1920" height="4837" fill="#1E1E1E"/>
</mask>
<g mask="url(#mask0_134_8286)">
<rect y="-15" width="1920" height="3508" fill="url(#paint0_linear_134_8286)"/>
<g opacity="0.44" filter="url(#filter0_f_134_8286)">
<path fill-rule="evenodd" clip-rule="evenodd" d="M177.694 2471.27C241.823 2481.62 307.116 2454.55 363.414 2494.04C440.455 2548.08 548.696 2615.38 538.716 2724.5C528.578 2835.34 393.055 2834.3 325.555 2907.98C266.994 2971.89 254.754 3103.63 177.694 3118.53C97.9592 3133.95 20.2437 3058.84 -24.7533 2975.71C-63.9268 2903.35 -29.4811 2811.34 -35.607 2724.5C-42.9466 2620.45 -124.414 2497.29 -63.5939 2425.09C-2.46471 2352.51 93.8009 2457.72 177.694 2471.27Z" fill="#FFCDEB" fill-opacity="0.2"/>
</g>
<g opacity="0.22" filter="url(#filter1_f_134_8286)">
<path fill-rule="evenodd" clip-rule="evenodd" d="M1669.69 1607.6C1733.82 1617.96 1799.12 1590.89 1855.41 1630.38C1932.46 1684.42 2040.7 1751.72 2030.72 1860.84C2020.58 1971.68 1885.06 1970.64 1817.55 2044.32C1758.99 2108.23 1746.75 2239.97 1669.69 2254.87C1589.96 2270.29 1512.24 2195.17 1467.25 2112.05C1428.07 2039.69 1462.52 1947.68 1456.39 1860.84C1449.05 1756.79 1367.59 1633.63 1428.41 1561.42C1489.54 1488.85 1585.8 1594.06 1669.69 1607.6Z" fill="#FFCDEB" fill-opacity="0.2"/>
</g>
<g filter="url(#filter2_f_134_8286)">
<path fill-rule="evenodd" clip-rule="evenodd" d="M1476.39 -503.856C1539.48 -506.832 1556.74 -388.768 1603.22 -335.721C1639.3 -294.526 1701.58 -285.107 1718.17 -227.851C1734.79 -170.534 1698.63 -112.127 1684.99 -53.6124C1673.42 -3.96762 1664.52 44.4954 1644.19 89.597C1619.41 144.564 1596.64 202.935 1553.97 237.029C1503.59 277.274 1442.82 314.634 1384.62 296.964C1326.13 279.202 1289.86 208.005 1255.7 146.465C1224.41 90.122 1196.81 27.4348 1197 -40.9848C1197.18 -105.433 1227.03 -162.423 1256.68 -215.337C1282.35 -261.14 1324.73 -283.495 1355.61 -324.043C1399.69 -381.929 1412.25 -500.832 1476.39 -503.856Z" fill="#F6E6E6" fill-opacity="0.6"/>
</g>
<g filter="url(#filter3_f_134_8286)">
<path fill-rule="evenodd" clip-rule="evenodd" d="M945.265 544.644C1003.79 521.042 1069.75 511.366 1126.12 541.981C1185.7 574.337 1254.05 633.649 1257.53 714.231C1261.28 801.057 1157.69 841.475 1142.74 926.422C1129.62 1000.93 1207.8 1076.33 1181.63 1145.34C1156.88 1210.6 1081.82 1212.31 1026.27 1233.52C969.989 1255.01 912.512 1288.91 855.68 1269.78C798.495 1250.54 757.019 1190.55 722.076 1131.17C689.182 1075.28 657.389 1010.54 662.554 941.63C667.478 875.946 717.054 832.898 748.427 779.643C773.057 737.835 796.829 698.557 826.904 662.651C864.13 618.209 896.137 564.456 945.265 544.644Z" fill="#FFE6F7" fill-opacity="0.4"/>
</g>
<g filter="url(#filter4_f_134_8286)">
<path fill-rule="evenodd" clip-rule="evenodd" d="M1882.5 -191.06C1942.46 -193.803 1991.86 -281.863 2049.53 -261.314C2105.73 -241.287 2127.14 -156.941 2155.79 -93.683C2186.85 -25.0953 2234.86 44.6453 2223.1 121.954C2211.34 199.164 2148.68 246.351 2097.1 291.935C2054.42 329.658 1999.71 330.192 1953.3 360.4C1890.89 401.029 1846.53 523.657 1778.88 499.09C1711.27 474.532 1719.85 346.126 1692.37 265.63C1673.89 211.534 1655.51 160.714 1643.89 103.76C1630.87 39.983 1605.97 -24.0538 1620.32 -87.3892C1635.45 -154.176 1669.94 -225.322 1723.21 -246.385C1776.83 -267.588 1826.26 -188.487 1882.5 -191.06Z" fill="#ABBEEB" fill-opacity="0.2"/>
</g>
<g filter="url(#filter5_f_134_8286)">
<path fill-rule="evenodd" clip-rule="evenodd" d="M444.502 446.759C504.463 444.015 553.855 355.956 611.526 376.505C667.731 396.531 689.142 480.878 717.789 544.136C748.85 612.724 796.861 682.464 785.095 759.773C773.345 836.982 710.678 884.17 659.102 929.753C616.42 967.476 561.707 968.011 515.303 998.219C452.89 1038.85 408.525 1161.48 340.883 1136.91C273.267 1112.35 281.853 983.945 254.366 903.449C235.893 849.353 217.512 798.533 205.888 741.579C192.872 677.802 167.973 613.765 182.321 550.43C197.45 483.642 231.94 412.497 285.209 391.434C338.831 370.231 388.262 449.332 444.502 446.759Z" fill="white" fill-opacity="0.7"/>
</g>
<g filter="url(#filter6_f_134_8286)">
<path fill-rule="evenodd" clip-rule="evenodd" d="M1043.5 606.834C1103.46 604.091 1152.86 516.031 1210.53 536.58C1266.73 556.607 1288.14 640.953 1316.79 704.211C1347.85 772.799 1395.86 842.539 1384.1 919.849C1372.34 997.058 1309.68 1044.25 1258.1 1089.83C1215.42 1127.55 1160.71 1128.09 1114.3 1158.29C1051.89 1198.92 1007.53 1321.55 939.883 1296.98C872.267 1272.43 880.853 1144.02 853.366 1063.52C834.893 1009.43 816.512 958.608 804.888 901.654C791.872 837.877 766.973 773.84 781.321 710.505C796.45 643.718 830.94 572.572 884.209 551.509C937.831 530.306 987.262 609.407 1043.5 606.834Z" fill="white" fill-opacity="0.7"/>
</g>
<g filter="url(#filter7_f_134_8286)">
<path fill-rule="evenodd" clip-rule="evenodd" d="M-121.062 -56.4253C-74.4646 -39.1395 -46.8827 17.5077 -3.08041 43.7361C49.7603 75.3767 133.126 47.5743 160.338 112.075C187.055 175.403 125.828 243.961 110.453 312.849C97.5189 370.798 109.338 439.721 77.1725 484.694C45.0712 529.575 -7.93488 541.418 -56.1656 545.803C-98.4519 549.647 -135.382 518.068 -176.966 507.798C-224.013 496.178 -276.393 514.451 -316.362 481.538C-360.32 445.341 -384.605 383.249 -402.826 321.814C-424.45 248.901 -451.139 169.513 -430.68 96.0845C-409.841 21.2917 -354.433 -35.415 -295.158 -64.6123C-240.066 -91.7494 -177.853 -77.4923 -121.062 -56.4253Z" fill="#DEE7FF" fill-opacity="0.5"/>
</g>
<g filter="url(#filter8_f_134_8286)">
<path fill-rule="evenodd" clip-rule="evenodd" d="M2011.61 579.673C2082.08 597.874 2073.38 737.729 2121.86 803.764C2152.73 845.823 2213.61 840.201 2238.15 888.264C2263.43 937.776 2258.44 1001.48 2252.47 1059.62C2246.42 1118.49 2223.6 1169.25 2203.76 1223.25C2175.76 1299.44 2179.41 1434.8 2112.15 1441.55C2037.51 1449.03 2021.5 1294.91 1956.86 1248.02C1915.23 1217.81 1852.18 1266.58 1816.16 1226.8C1780.48 1187.41 1796.12 1114.58 1784.08 1057.24C1770.09 990.616 1722.58 928.035 1739.66 862.531C1756.66 797.312 1824.98 782.059 1867.31 738.026C1917.54 685.784 1947.45 563.102 2011.61 579.673Z" fill="#DACDFF" fill-opacity="0.4"/>
</g>
<path opacity="0.3" d="M1635.7 2259.25H1635.37L1519.11 2816.86L1286.84 3095.34H1286.54L1170.24 3652.95L938.158 3931.43H937.826L821.562 4489.04L665.402 4676.22H670.117L822.815 4492.58H823.109L939.41 3934.84L1171.53 3657.8H1171.86L1288.13 3100.19L1520.21 2821.72H1520.55L1636.81 2264.11L1869.08 1985.63H1869.37L1945.89 1618.35V1607.07L1867.79 1980.78L1635.7 2259.25ZM1606.6 2189.6H1606.31L1490.01 2747.21L1257.92 3025.69H1257.63L1141.32 3583.3L909.239 3861.78H908.908L792.644 4419.52L578.351 4676.35H583.029L793.896 4423.58H794.191L909.976 3866.63L1142.06 3588.15H1142.36L1258.66 3030.54L1490.74 2752.06H1491.07L1607.34 2194.45L1839.61 1915.98H1839.9L1945.48 1409.52V1398.37L1838.36 1912.17L1606.6 2189.6ZM1722.5 795.903L1606.23 1353.51L1374.15 1631.99H1373.82L1257.4 2189.99L1025.13 2468.34H1024.84L908.539 3026.08L676.453 3304.43H676.122L559.858 3862.04L327.772 4140.52H327.477L215.45 4677.4H217.77L328.693 4145.5L560.963 3867.68H561.258L677.558 3310.07L909.644 3031.59H909.976L1026.24 2473.98L1258.33 2195.5H1258.66L1374.92 1637.89L1607.01 1359.42H1607.3L1724.12 799.575L1945.96 533.56V527.919L1722.87 795.509L1722.5 795.903ZM1751.6 865.555L1635.3 1423.17L1403.21 1701.64H1402.88L1286.47 2259.65L1054.2 2538.12H1053.91L937.605 3096.13L705.519 3374.6H705.188L588.776 3933.26L356.69 4211.74H356.359L259.03 4677.4H261.388L357.759 4215.15L590.029 3936.68H590.324L706.624 3379.06L938.71 3100.59H939.042L1055.45 2542.85L1287.72 2264.37H1288.02L1404.32 1706.63L1636.4 1428.28H1636.7L1753 870.539L1945.78 639.415V633.775L1751.9 865.161L1751.6 865.555ZM1896.93 2887.04L1780.67 3444.65L1548.4 3723.39H1548.1L1431.8 4281L1199.71 4559.48H1199.38L1174.89 4677.53H1177.24L1200.97 4563.81L1433.05 4285.33H1433.38L1549.65 3727.72L1781.73 3449.24H1782.07L1898.33 2891.63L1945.78 2834.83V2829.19L1896.93 2887.04ZM1926 2956.69L1809.73 3514.3L1577.46 3792.78H1577.17L1460.87 4350.39L1228.78 4628.87H1228.45L1218.5 4676.61H1220.86L1230.03 4632.54L1462.12 4354.19H1462.45L1578.71 3796.58L1810.98 3518.11H1811.28L1927.54 2960.5L1945.96 2938.46V2932.82L1926.36 2956.3L1926 2956.69ZM1693.91 2398.69H1693.58L1577.31 2956.3L1345.04 3234.78H1344.75L1228.45 3792.39L996.363 4070.86H996.069L879.768 4628.47L839.908 4676.22H844.587L881.02 4632.54H881.315L997.616 4074.93L1229.7 3796.45H1230.03L1346.3 3238.71L1578.57 2960.36H1578.86L1695.16 2402.62L1927.25 2124.28H1927.54L1945.96 2036.13V2024.85L1926.03 2120.47L1693.91 2398.69ZM1664.84 2329.04H1664.51L1548.25 2886.78L1315.98 3165.12H1315.68L1199.24 3723.39L967.15 4001.74H966.855L850.555 4559.35L752.563 4677.4H757.241L851.807 4564.07H852.102L968.403 4006.46L1200.49 3727.98H1200.82L1317.08 3170.37L1549.35 2891.89H1549.65L1665.91 2332.97L1898.18 2054.49H1898.48L1945.93 1827.04V1815.76L1896.93 2050.82L1664.84 2329.04ZM1867.79 1144.43L1751.6 1702.04L1519.51 1980.51H1519.22L1402.92 2538.25L1170.83 2816.6H1170.5L1054.24 3374.34L822.152 3652.69H821.857L705.04 4211.35L472.954 4489.83H472.66L433.61 4677.01H435.931L474.207 4493.37L706.293 4214.89H706.624L822.888 3657.8L1055.16 3379.33H1055.45L1171.75 2821.72L1403.84 2543.24H1404.17L1520.44 1985.63L1752.52 1707.15H1752.85L1869.12 1149.54L1945.63 1057.72V1052.08L1868.16 1144.03L1867.79 1144.43ZM1926 1283.6L1809.73 1841.34L1577.46 2119.69H1577.17L1460.87 2677.95L1228.78 2956.3H1228.45L1112.19 3513.91L880.099 3792.39H879.768L763.504 4350L531.418 4628.47H531.123L521.14 4676.22H523.166L532.339 4632.15L764.609 4353.8H764.904L881.168 3796.19L1113.44 3517.71H1113.73L1230.03 2960.1L1462.12 2681.63H1462.45L1578.71 2124.01L1810.98 1845.54H1811.28L1927.54 1287.53L1945.96 1265.5V1259.86L1926.33 1283.6H1926ZM1896.93 1213.95L1780.67 1771.56L1548.4 2050.17H1548.1L1431.8 2608.43L1199.71 2886.91H1199.38L1083.12 3444.65L851.033 3723.13H850.739L734.475 4280.74L502.205 4559.22H501.91L477.412 4677.27H479.733L503.457 4563.54L735.543 4285.07H735.875L852.139 3727.46L1084.41 3448.98H1084.7L1201 2890.71L1433.09 2612.24H1433.42L1549.69 2054.49L1781.77 1776.15H1782.1L1898.48 1218.01L1945.93 1161.22V1155.58L1897.26 1213.68L1896.93 1213.95ZM1780.67 935.207L1664.37 1493.47L1432.28 1771.82H1431.95L1315.68 2329.43L1083.12 2608.43H1082.82L966.708 3165.78L734.622 3444.26H734.327L617.842 4002.26L385.756 4280.74H385.425L302.648 4677.4H305.005L386.862 4284.8L618.947 4006.46H619.242L735.69 3447.93L967.776 3169.45H968.108L1084.37 2611.84L1316.79 2332.97H1317.08L1433.38 1775.36L1665.47 1496.88H1665.77L1782.07 939.273L1945.78 742.516V737.007L1780.96 934.813L1780.67 935.207ZM1693.76 725.332H1693.43L1577.17 1283.6L1344.9 1562.08H1344.6L1228.3 2119.69L996.216 2398.16H995.921L879.62 2955.77L647.535 3234.25H647.203L530.534 3793.17L298.448 4071.65H298.153L181.816 4629.65L141.956 4677.4H146.634L183.031 4633.72H183.363L299.627 4076.11L531.897 3797.63H532.192L648.419 3239.24L880.505 2960.89H880.799L997.1 2403.15L1229.19 2124.8H1229.52L1345.78 1567.06L1578.05 1288.71H1578.35L1695.02 729.923L1927.1 451.446H1927.4L1945.82 363.299V352.28L1925.89 447.773L1693.76 725.332ZM1809.73 1004.6L1693.43 1562.21L1461.35 1840.68H1461.01L1344.68 2398.56L1112.41 2677.03H1112.11L995.848 3234.64L763.504 3513.52H763.209L646.908 4071.26L414.822 4349.6H414.491L346.339 4677.4H348.66L416.001 4354.59L648.087 4076.11H648.419L764.683 3518.5L996.769 3240.02H997.1L1113.36 2682.41L1345.63 2403.94H1345.93L1462.56 1845.14L1694.65 1566.67H1694.98L1811.28 1008.14L1945.93 846.797V841.157L1810.03 1004.6H1809.73ZM1867.79 2817.26L1751.53 3375L1519.44 3653.34H1519.15L1402.73 4211.35L1170.65 4489.83H1170.32L1131.01 4677.4H1133.33L1171.61 4493.76L1403.69 4215.28H1404.02L1520.58 3657.8L1752.67 3379.33H1753L1869.26 2821.72L1945.78 2729.9V2724.26L1868.01 2817.39L1867.79 2817.26ZM1896.86 377.465L1664.77 655.943H1664.44L1548.1 1214.08L1315.83 1492.55H1315.54L1199.24 2050.17L967.15 2328.64H966.855L850.555 2886.38L618.469 3164.73H618.137L501.578 3723.39L269.492 4001.74H269.198L152.713 4560L54.7208 4678.06H59.3994L153.965 4564.72H154.297L270.561 4007.11L502.647 3728.64H502.941L619.205 3171.03L851.291 2892.55H851.586L968.255 2332.97L1200.34 2054.49H1200.67L1316.94 1496.88L1549.35 1218.01H1549.65L1665.91 660.14L1898.18 381.663H1898.48L1945.93 154.08V142.406L1896.86 377.465ZM1838.8 1074.64L1722.5 1632.25L1490.41 1910.73H1490.08L1373.82 2468.34L1141.73 2746.82H1141.4L1025.13 3304.43L792.865 3582.91H792.57L676.269 4140.52L444.183 4418.99H443.852L390.288 4675.83H392.645L445.436 4422.67L677.522 4144.19H677.853L794.117 3586.45L1026.2 3308.1H1026.5L1142.8 2750.36L1374.88 2472.01H1375.18L1491.48 1914.4L1723.57 1635.93H1723.9L1840.16 1078.32L1945.74 951.734V946.094L1838.91 1074.12L1838.8 1074.64ZM1780.67 4281.13L1698 4677.4H1700.36L1782.21 4284.8L1945.93 4088.05V4082.41L1780.96 4280.21L1780.67 4281.13ZM1809.73 4350.78L1741.62 4677.4H1743.97L1811.28 4354.59L1945.93 4193.12V4187.48L1810.03 4350.39L1809.73 4350.78ZM1722.5 4141.7L1610.8 4677.4H1613.16L1724.12 4145.5L1945.96 3879.48V3873.84L1722.87 4141.3L1722.5 4141.7ZM1838.8 4420.57L1785.23 4677.4H1787.56L1840.35 4424.24L1945.93 4297.66V4292.02L1839.09 4420.17L1838.8 4420.57ZM1693.76 4071.65H1693.43L1577.17 4629.26L1537.31 4677.01H1541.99L1578.42 4633.33H1578.71L1695.02 4075.72L1927.1 3797.24H1927.4L1945.82 3709.09V3697.16L1925.89 3792.78L1693.76 4071.65ZM1925.85 4629.65L1915.9 4677.4H1918.22L1927.4 4633.33L1945.82 4611.42V4605.78L1926.22 4629.26L1925.85 4629.65ZM1896.78 4560L1872.29 4678.06H1874.64L1898.33 4564.33L1945.78 4507.4V4501.89L1897.26 4559.61L1896.78 4560ZM1838.8 2747.6L1722.5 3305.21L1490.41 3583.69H1490.08L1373.82 4141.3L1141.73 4419.78H1141.4L1087.54 4677.4H1089.9L1142.65 4424.24L1374.74 4145.76H1375.03L1491.33 3588.02L1723.42 3309.68H1723.75L1840.01 2751.93L1945.59 2625.35V2619.84L1838.76 2747.87L1838.8 2747.6ZM1867.79 4490.22L1828.74 4677.4H1831.1L1869.34 4493.76L1945.85 4401.94V4396.43L1868.09 4489.56L1867.79 4490.22ZM1664.62 4001.87H1664.29L1548.03 4559.61L1450.04 4677.66H1454.71L1549.28 4564.33H1549.58L1665.84 4006.72L1898.11 3728.24H1898.4L1945.93 3500.4V3489.12L1896.93 3723.39L1664.62 4001.87ZM1751.53 2538.52L1635.23 3096.13L1403.14 3374.6H1402.81L1286.47 3933.26L1054.2 4211.74H1053.91L956.725 4677.79H959.046L1055.45 4215.55L1287.72 3937.07H1288.02L1404.32 3379.46L1636.4 3100.98H1636.7L1753.15 2542.85L1945.93 2311.72V2306.08L1751.9 2538.78L1751.53 2538.52ZM1809.66 2677.95L1693.36 3235.56L1461.27 3514.04H1460.94L1344.68 4072.04L1112.33 4350.39H1112.04L1043.92 4677.01H1046.28L1113.59 4354.19L1345.86 4075.72H1346.15L1462.56 3518.11L1694.65 3239.63H1694.98L1811.24 2682.02L1945.89 2520.55V2514.91L1809.99 2677.95H1809.66ZM1780.67 2608.43L1664.37 3166.04L1432.28 3444.52H1431.95L1315.68 4002.13L1083.6 4280.61H1083.3L1000.67 4676.88H1002.99L1084.85 4284.28L1317.12 4005.93H1317.42L1433.38 3447.93L1665.47 3169.58H1665.77L1782.07 2611.97L1945.78 2415.22V2409.58L1780.96 2608.43H1780.67ZM1722.5 2469L1606.23 3026.48L1374.15 3304.82H1373.82L1257.55 3862.43L1025.28 4140.91H1024.99L913.255 4676.61H915.612L1026.53 4144.71L1258.62 3866.24H1258.95L1375.22 3308.63L1607.3 3030.15H1607.6L1724.12 2472.54L1945.96 2206.52V2200.88L1722.87 2468.34L1722.5 2469ZM1635.7 3932.22H1635.37L1519.11 4489.83L1362.95 4677.01H1367.63L1520.32 4493.37H1520.66L1636.92 3935.63L1869.12 3657.8H1869.41L1945.93 3290.52V3279.37L1867.79 3653.74L1635.7 3932.22ZM1606.6 3862.56H1606.31L1490.01 4420.3L1275.75 4677.14H1280.43L1491.26 4424.37H1491.59L1607.85 3866.76L1840.12 3588.28H1840.42L1946 3081.96V3070.81L1838.87 3584.61L1606.6 3862.56ZM1751.67 4211.35L1654.49 4677.4H1656.81L1753.22 4215.15L1946 3984.03V3978.39L1751.97 4211.09L1751.67 4211.35ZM125.304 1984.58L357.39 1706.1H357.685L473.986 1148.49L706.072 870.015H706.403L822.888 311.617L1055.16 33.14H1055.45L1065.44 -15H1063.08L1053.91 29.0736L821.562 307.551H821.267L705.04 865.555L472.954 1144.03H472.66L356.212 1702.04L124.126 1980.51H123.794L7.41952 2538.52L-11 2560.55V2566.06L8.92992 2542.85L125.304 1984.58ZM67.0619 2681.63L183.363 2124.01L415.449 1845.54H415.78L532.192 1287.53L764.462 1009.06H764.756L881.02 451.446L1113.29 172.575H1113.59L1152.63 -15H1150.31L1112.04 168.64L879.952 447.117H879.62L763.209 1004.99L530.939 1283.6H530.534L414.233 1841.34L182.147 2119.69H181.852L65.5147 2677.95L-11 2769.64V2775.28L66.7672 2682.02L67.0619 2681.63ZM270.266 3169.98H270.561L386.862 2611.97L618.947 2332.97H619.242L735.543 1775.36L967.629 1496.88H967.96L1084.22 939.273L1316.79 660.534H1317.08L1433.38 103.054L1531.38 -15H1526.7L1432.13 98.4634H1431.8L1315.54 656.467L1083.12 934.813H1082.82L966.708 1493.47L734.622 1771.82H734.327L617.842 2329.3L385.756 2607.78H385.425L268.977 3165.78L36.8907 3444.26H36.596L-11 3672.23V3684.04L37.9959 3447.93L270.266 3169.98ZM241.2 3100.19H241.495L357.759 2542.85L590.029 2264.37H590.324L706.624 1706.63L938.71 1428.28H939.042L1055.31 870.539L1287.58 592.193H1287.87L1404.32 32.8776L1444.14 -15H1439.46L1403.03 28.6801H1402.7L1286.47 586.684L1054.2 865.161H1053.91L937.605 1423.17L705.519 1701.64H705.188L588.924 2259.25L356.838 2537.73H356.506L239.948 3096.13L7.86159 3374.6H7.56687L-10.8526 3462.62V3474.16L9.07727 3378.54L241.2 3100.19ZM48.8266 -15H44.2586L7.67739 28.6801L7.41952 29.0736L-11 117.221V128.371L8.92992 32.8776L48.8266 -15ZM154.297 2890.71L270.561 2332.97L502.647 2054.49H502.941L619.205 1496.88L851.291 1218.41H851.586L967.887 660.796L1199.97 382.319H1200.3L1283.45 -15H1281.13L1199.24 377.597L967.15 656.074H966.855L850.407 1214.08L618.321 1492.55H617.99L501.726 2050.17L269.64 2328.64H269.345L152.713 2887.04L-11 3083.27V3088.91L153.965 2891.11L154.297 2890.71ZM125.304 2821.06L241.495 2263.45L473.581 1984.97H473.912L590.176 1427.36L822.594 1148.49H822.888L939.189 590.882L1171.28 312.404H1171.61L1239.87 -15H1237.51L1170.17 307.944L938.084 586.291H937.753L821.341 1144.43L589.255 1422.77H588.924L472.66 1980.38L240.574 2258.86H240.279L123.647 2817.26L-11 2978.73V2984.37L124.899 2821.45L125.304 2821.06ZM96.2016 2751.28L212.502 2193.67L444.588 1915.19H444.92L561.184 1357.45L793.27 1079.1H793.565L909.976 520.705L1142.06 242.359H1142.36L1196.25 -15H1193.89L1141.1 238.161L909.018 516.638H908.687L792.275 1074.64L560.005 1353.12H559.71L443.409 1910.73L211.324 2189.21H211.029L94.5807 2747.6L-11 2874.19V2879.83L95.8332 2751.67L96.2016 2751.28ZM67.0619 4354.59L183.363 3796.98L415.449 3518.5H415.78L532.044 2960.89L764.314 2682.41H764.609L880.873 2124.8L1113.14 1846.32H1113.44L1229.89 1287.53L1461.97 1009.06H1462.3L1578.57 451.446L1810.98 172.575H1811.28L1850.33 -15H1847.97L1809.73 168.64L1577.46 446.986H1577.17L1460.87 1004.99L1228.63 1283.6H1228.3L1112.04 1841.34L879.952 2119.69H879.62L763.209 2677.95L531.123 2956.3H530.829L414.528 3513.91L182.442 3792.39H182.147L65.5147 4350.78L-11 4442.6V4448.11L66.7672 4354.98L67.0619 4354.59ZM37.9959 4284.8L154.297 3727.19L386.383 3448.72H386.714L502.978 2891.11L735.064 2612.63H735.396L851.66 2054.89L1083.93 1776.54H1084.22L1201 1218.01L1433.09 939.667H1433.42L1549.69 382.056L1781.88 103.054H1782.21L1806.71 -15H1804.39L1780.67 98.7258L1548.4 377.203H1548.1L1431.8 935.207L1199.71 1213.68H1199.38L1083.12 1771.69L851.033 2050.17H850.739L734.143 2608.43L501.873 2886.91H501.578L385.277 3444.52L153.044 3723.39H152.713L36.4487 4281.13L-11 4338.06V4343.57L37.7012 4285.2L37.9959 4284.8ZM125.304 3657.8L357.39 3379.33H357.685L473.986 2821.72L706.072 2543.24H706.403L822.667 1985.63L1054.94 1707.15H1055.23L1171.53 1149.54L1403.62 871.064H1403.95L1520.58 311.617L1752.67 33.14H1753L1763.09 -15H1760.96L1751.78 29.0736L1519.7 307.551H1519.4L1402.73 865.555L1170.65 1144.03H1170.32L1053.91 1702.04L821.82 1980.51H821.525L705.224 2538.25L473.139 2816.6H472.844L356.212 3375L124.126 3653.34H123.794L7.41952 4211.35L-11 4233.39V4239.03L8.92992 4215.15L125.304 3657.8ZM299.406 3239.89H299.7L416.001 2682.28L648.087 2403.8H648.419L764.683 1846.19L996.769 1567.72H997.1L1113.59 1008.14L1345.86 729.661H1346.15L1462.56 172.182L1618.61 -15H1613.93L1461.2 168.64H1460.87L1344.68 726.119L1112.33 1004.6H1112.04L995.774 1562.21L763.504 1841.08H763.209L646.908 2398.56L414.822 2677.03H414.491L298.08 3235.56L65.8094 3513.52H65.5147L-11 3880.8V3891.95L67.0619 3517.58L299.406 3239.89ZM125.304 4494.02L241.568 3936.28L473.654 3657.94H473.986L590.25 3100.32L822.52 2821.85H822.815L939.116 2264.24L1171.2 1985.76H1171.53L1287.8 1428.15L1519.88 1149.67H1520.21L1636.48 592.062L1868.75 313.585H1869.04L1937.53 -15H1935.21L1867.79 307.944L1635.7 586.291H1635.37L1519.04 1144.43L1286.77 1422.77H1286.47L1170.17 1980.38L938.084 2258.86H937.753L821.489 2816.47L589.403 3094.95H589.071L472.807 3652.56L240.721 3931.03H240.426L123.647 4490.22L-11 4651.69V4657.33L124.899 4494.29L125.304 4494.02ZM328.472 3309.41H328.766L445.067 2751.67L677.153 2473.32H677.485L793.749 1915.71L1025.83 1637.24H1026.13L1142.39 1079.63L1374.48 801.15H1374.77L1491.07 243.539L1705.7 -15H1701.02L1490.26 237.768H1489.93L1373.67 795.903L1141.44 1073.72H1141.1L1024.84 1631.33L792.57 1909.81H792.275L675.974 2467.42L443.888 2745.9H443.557L327.146 3305.21L95.0596 3583.69H94.728L-11 4090.67V4101.95L96.1279 3588.02L328.472 3309.41ZM183.436 2960.5L299.7 2402.75L531.971 2124.41H532.265L648.419 1566.27L880.505 1287.93H880.799L997.1 730.317L1229.19 451.84H1229.52L1327.07 -15H1324.71L1228.3 447.249L996.216 725.726H995.921L879.473 1283.6L647.387 1562.08H647.056L530.534 2120.21L298.448 2398.56H298.153L181.816 2956.69L-11 3187.82V3193.46L183.031 2960.89L183.436 2960.5ZM96.1279 4424.24L212.429 3866.63L444.515 3588.15H444.846L561.11 3030.54L793.196 2752.06H793.491L909.976 2193.67L1142.06 1915.19H1142.36L1258.66 1357.45L1490.74 1079.1H1491.07L1607.34 521.361L1839.61 243.014H1839.9L1893.95 -15H1891.59L1838.8 238.161L1606.53 516.638H1606.23L1489.93 1074.64L1257.85 1353.12H1257.55L1141.25 1910.73L909.165 2189.21H908.834L792.57 2746.82L560.005 3026.08H559.71L443.409 3583.69L211.324 3862.17H211.029L94.5807 4420.57L-11 4547.15V4552.79L95.8332 4424.63L96.1279 4424.24ZM37.9959 2611.97L154.297 2054.23L386.383 1775.89H386.714L503.126 1218.01L735.211 939.667H735.543L851.807 382.056L1084.22 103.054H1084.52L1108.91 -15H1106.59L1083.12 98.7258L851.033 377.203H850.739L734.143 935.207L501.873 1213.68H501.578L385.277 1771.29L153.192 2049.77H152.86L36.4487 2608.43L-11 2665.1V2670.74L37.7012 2612.24L37.9959 2611.97ZM96.1279 1078.45L212.429 520.705L444.515 242.359H444.846L498.558 -15H496.237L443.409 238.161L211.324 516.638H211.029L94.5807 1074.64L-11 1201.22V1206.86L95.8332 1078.84L96.1279 1078.45ZM154.297 1218.01L270.561 660.14L502.647 381.663H502.941L585.792 -15H583.471L501.578 377.597L269.492 656.074H269.198L152.713 1214.08L-11 1410.31V1415.95L153.965 1218.01H154.297ZM183.363 1287.8L299.627 729.923L531.897 451.446H532.192L629.373 -15H627.052L530.534 447.249L298.448 725.726H298.153L181.816 1283.6L-11 1514.99V1520.49L183.031 1287.93L183.363 1287.8ZM125.304 1148.1L241.495 590.488L473.581 312.011H473.912L542.175 -15H539.817L472.512 307.944L240.426 586.291H240.132L123.647 1144.43L-11 1305.77V1311.41L124.899 1148.49L125.304 1148.1ZM212.502 1357.19L328.693 799.575L560.963 521.098H561.258L672.99 -15H670.522L559.71 517.032L327.624 795.509H327.33L210.882 1353.51L-11 1619.53V1624.64L212.097 1357.19H212.502ZM136.025 -15H131.346L36.8907 98.4634H36.596L-11 326.046V337.327L37.9959 103.054L136.025 -15ZM310.457 -15H305.816L94.9122 237.768H94.5807L-11 744.615V755.764L96.1279 241.965L310.457 -15ZM223.223 -15H218.544L65.8094 168.64H65.5147L-11 535.921V547.201L67.0619 172.182L223.223 -15ZM241.2 1427.89H241.495L357.759 869.228L590.029 590.882H590.324L706.624 32.8776L746.484 -15H741.806L705.372 28.6801H705.04L588.776 586.684L356.69 865.161H356.359L239.948 1423.17L7.86159 1701.64H7.56687L-10.8526 1789.79V1800.94L9.07727 1705.32L241.2 1427.89ZM67.0619 1008.14L183.363 451.053L415.449 172.575H415.78L454.977 -15H452.619L414.344 168.64L182.258 447.117H181.963L65.5147 1004.99L-11 1096.68V1102.32L66.7672 1009.06L67.0619 1008.14ZM328.398 1636.45H328.693L444.994 1078.84L677.08 800.362H677.411L793.675 242.752L1008.12 -15H1003.44L792.57 237.768H792.275L675.974 795.903L443.741 1073.72H443.409L327.146 1632.25L95.0596 1910.73H94.728L-11 2417.45V2428.73L96.1279 1914.93L328.398 1636.45ZM270.266 1497.01H270.561L386.862 939.011L618.947 660.534H619.242L735.69 103.054L833.719 -15H828.93L734.438 98.4634H734.143L617.842 656.467L385.756 934.813H385.425L268.977 1493.47L36.8907 1771.29H36.596L-11 1999.27V2010.42L37.9959 1775.49L270.266 1497.01ZM299.332 1566.67H299.627L415.928 1008.14L648.014 729.661H648.345L764.609 171.919L921.028 -15H916.239L763.504 168.64H763.209L646.908 726.119L414.822 1004.6H414.491L298.08 1562.6L65.9936 1841.08H65.6989L-11 2208.36V2219.64L67.0619 1845.14L299.332 1566.67ZM37.9959 939.011L154.297 381.401L386.53 103.054H386.862L411.36 -15H408.965L385.241 98.7258L153.155 377.203H152.823L36.4487 935.207L-11 992.135V997.776L37.7012 939.404L37.9959 939.011ZM125.304 311.617L357.39 33.14H357.685L367.742 -15H365.421L356.212 29.0736L124.126 307.551H123.794L7.41952 865.555L-11 887.592V893.232L8.92992 869.228L125.304 311.617ZM212.429 3030.15L328.693 2472.54L560.963 2194.06H561.258L677.558 1636.45L909.644 1357.97H909.976L1026.39 799.575L1258.47 521.098H1258.8L1370.65 -15H1368.33L1257.4 517.032L1025.13 795.509H1024.84L908.539 1353.12L676.453 1631.6H676.122L559.71 2189.99L327.624 2468.34H327.33L210.882 3026.48L-11 3292.36V3298L212.097 3030.54L212.429 3030.15Z" fill="#E6F3F7"/>
<g filter="url(#filter9_f_134_8286)">
<path d="M1101.5 629.644C1101.5 1153.59 761.536 1552.76 370.5 1552.76C-20.536 1552.76 -360.5 1153.59 -360.5 629.644C-360.5 105.702 -20.536 -293.468 370.5 -293.468C761.536 -293.468 1101.5 105.702 1101.5 629.644Z" stroke="url(#paint1_linear_134_8286)" stroke-width="133"/>
</g>
<g filter="url(#filter10_f_134_8286)">
<path d="M2361.5 2220.47C2361.5 2744.41 2021.54 3143.58 1630.5 3143.58C1239.46 3143.58 899.5 2744.41 899.5 2220.47C899.5 1696.53 1239.46 1297.36 1630.5 1297.36C2021.54 1297.36 2361.5 1696.53 2361.5 2220.47Z" stroke="url(#paint2_linear_134_8286)" stroke-width="133"/>
</g>
</g>
<defs>
<filter id="filter0_f_134_8286" x="-208" y="2277.78" width="869.359" height="964.777" filterUnits="userSpaceOnUse" color-interpolation-filters="sRGB">
<feFlood flood-opacity="0" result="BackgroundImageFix"/>
<feBlend mode="normal" in="SourceGraphic" in2="BackgroundImageFix" result="shape"/>
<feGaussianBlur stdDeviation="61" result="effect1_foregroundBlur_134_8286"/>
</filter>
<filter id="filter1_f_134_8286" x="1284" y="1414.12" width="869.359" height="964.777" filterUnits="userSpaceOnUse" color-interpolation-filters="sRGB">
<feFlood flood-opacity="0" result="BackgroundImageFix"/>
<feBlend mode="normal" in="SourceGraphic" in2="BackgroundImageFix" result="shape"/>
<feGaussianBlur stdDeviation="61" result="effect1_foregroundBlur_134_8286"/>
</filter>
<filter id="filter2_f_134_8286" x="753" y="-947.912" width="1413.46" height="1693.38" filterUnits="userSpaceOnUse" color-interpolation-filters="sRGB">
<feFlood flood-opacity="0" result="BackgroundImageFix"/>
<feBlend mode="normal" in="SourceGraphic" in2="BackgroundImageFix" result="shape"/>
<feGaussianBlur stdDeviation="222" result="effect1_foregroundBlur_134_8286"/>
</filter>
<filter id="filter3_f_134_8286" x="329" y="189.723" width="1261.63" height="1418.7" filterUnits="userSpaceOnUse" color-interpolation-filters="sRGB">
<feFlood flood-opacity="0" result="BackgroundImageFix"/>
<feBlend mode="normal" in="SourceGraphic" in2="BackgroundImageFix" result="shape"/>
<feGaussianBlur stdDeviation="166.5" result="effect1_foregroundBlur_134_8286"/>
</filter>
<filter id="filter4_f_134_8286" x="1283" y="-597.419" width="1274.91" height="1432.73" filterUnits="userSpaceOnUse" color-interpolation-filters="sRGB">
<feFlood flood-opacity="0" result="BackgroundImageFix"/>
<feBlend mode="normal" in="SourceGraphic" in2="BackgroundImageFix" result="shape"/>
<feGaussianBlur stdDeviation="166.5" result="effect1_foregroundBlur_134_8286"/>
</filter>
<filter id="filter5_f_134_8286" x="-155" y="40.3994" width="1274.91" height="1432.73" filterUnits="userSpaceOnUse" color-interpolation-filters="sRGB">
<feFlood flood-opacity="0" result="BackgroundImageFix"/>
<feBlend mode="normal" in="SourceGraphic" in2="BackgroundImageFix" result="shape"/>
<feGaussianBlur stdDeviation="166.5" result="effect1_foregroundBlur_134_8286"/>
</filter>
<filter id="filter6_f_134_8286" x="444" y="200.475" width="1274.91" height="1432.73" filterUnits="userSpaceOnUse" color-interpolation-filters="sRGB">
<feFlood flood-opacity="0" result="BackgroundImageFix"/>
<feBlend mode="normal" in="SourceGraphic" in2="BackgroundImageFix" result="shape"/>
<feGaussianBlur stdDeviation="166.5" result="effect1_foregroundBlur_134_8286"/>
</filter>
<filter id="filter7_f_134_8286" x="-660" y="-301.526" width="1049" height="1069.65" filterUnits="userSpaceOnUse" color-interpolation-filters="sRGB">
<feFlood flood-opacity="0" result="BackgroundImageFix"/>
<feBlend mode="normal" in="SourceGraphic" in2="BackgroundImageFix" result="shape"/>
<feGaussianBlur stdDeviation="111" result="effect1_foregroundBlur_134_8286"/>
</filter>
<filter id="filter8_f_134_8286" x="1614" y="456.146" width="765.301" height="1107.66" filterUnits="userSpaceOnUse" color-interpolation-filters="sRGB">
<feFlood flood-opacity="0" result="BackgroundImageFix"/>
<feBlend mode="normal" in="SourceGraphic" in2="BackgroundImageFix" result="shape"/>
<feGaussianBlur stdDeviation="61" result="effect1_foregroundBlur_134_8286"/>
</filter>
<filter id="filter9_f_134_8286" x="-460" y="-392.968" width="1661" height="2045.22" filterUnits="userSpaceOnUse" color-interpolation-filters="sRGB">
<feFlood flood-opacity="0" result="BackgroundImageFix"/>
<feBlend mode="normal" in="SourceGraphic" in2="BackgroundImageFix" result="shape"/>
<feGaussianBlur stdDeviation="16.5" result="effect1_foregroundBlur_134_8286"/>
</filter>
<filter id="filter10_f_134_8286" x="800" y="1197.86" width="1661" height="2045.22" filterUnits="userSpaceOnUse" color-interpolation-filters="sRGB">
<feFlood flood-opacity="0" result="BackgroundImageFix"/>
<feBlend mode="normal" in="SourceGraphic" in2="BackgroundImageFix" result="shape"/>
<feGaussianBlur stdDeviation="16.5" result="effect1_foregroundBlur_134_8286"/>
</filter>
<linearGradient id="paint0_linear_134_8286" x1="960" y1="-15" x2="960" y2="3493" gradientUnits="userSpaceOnUse">
<stop stop-color="#F7FCFF"/>
<stop offset="1" stop-color="#F7FCFF" stop-opacity="0"/>
</linearGradient>
<linearGradient id="paint1_linear_134_8286" x1="2325.5" y1="1278.01" x2="609.29" y2="842.792" gradientUnits="userSpaceOnUse">
<stop stop-color="#F5EFEF"/>
<stop offset="1" stop-color="#C2DBF7" stop-opacity="0.22"/>
</linearGradient>
<linearGradient id="paint2_linear_134_8286" x1="3585.5" y1="2868.83" x2="1869.29" y2="2433.62" gradientUnits="userSpaceOnUse">
<stop stop-color="#F5EFEF"/>
<stop offset="1" stop-color="#C2DBF7" stop-opacity="0.22"/>
</linearGradient>
</defs>
</svg>
