<svg width="16" height="16" viewBox="0 0 16 16" fill="none" xmlns="http://www.w3.org/2000/svg">
<path d="M6.59362 4.8436C2.97509 4.8436 3.29095e-05 7.332 3.29095e-05 10.3908C3.29095e-05 11.6135 0.474282 12.8561 1.344 13.8192L0.115845 15.2227C-0.00499834 15.361 -0.0343108 15.5573 0.0421579 15.7249C0.118158 15.8924 0.284783 16 0.468782 16H7.06237C9.73409 16 13.1872 13.6993 13.1872 10.3908C13.1872 7.332 10.2121 4.8436 6.59362 4.8436ZM3.74994 11.25C3.23312 11.25 2.81247 10.8293 2.81247 10.3125C2.81247 9.79568 3.23315 9.37501 3.74994 9.37501C4.26672 9.37501 4.6874 9.79571 4.6874 10.3125C4.68743 10.8293 4.26675 11.25 3.74994 11.25ZM6.59362 11.25C6.07681 11.25 5.65615 10.8293 5.65615 10.3125C5.65615 9.79568 6.07684 9.37501 6.59362 9.37501C7.1104 9.37501 7.53109 9.79571 7.53109 10.3125C7.53109 10.8293 7.11043 11.25 6.59362 11.25ZM9.43731 11.25C8.92049 11.25 8.49984 10.8293 8.49984 10.3125C8.49984 9.79568 8.92052 9.37501 9.43731 9.37501C9.95409 9.37501 10.3748 9.79571 10.3748 10.3125C10.3748 10.8293 9.95412 11.25 9.43731 11.25Z" fill="#2FC158"/>
<path d="M15.8866 9.53839L14.783 8.25071C15.5707 7.36175 15.9997 6.27773 15.9997 5.15624C15.9996 2.31308 13.266 0 9.90605 0C6.86778 0 4.2865 1.89345 3.83072 4.35791C4.67847 4.06984 5.62918 3.90608 6.59365 3.90608C10.6984 3.90608 14.0709 6.77318 14.1201 10.3125H15.5309C15.9313 10.3125 16.1464 9.84099 15.8866 9.53839Z" fill="#2FC158"/>
</svg>
