<svg width="20" height="24" viewBox="0 0 20 24" fill="none" xmlns="http://www.w3.org/2000/svg">
<path d="M9.06595 0.383611L0.383864 9.05086C0.136033 9.29827 -1.5368e-08 9.62802 0 9.97963C1.53875e-08 10.3316 0.136229 10.6612 0.383864 10.9086L1.17231 11.6955C1.41975 11.9427 1.75025 12.0789 2.10265 12.0789C2.45485 12.0789 2.7965 11.9427 3.04394 11.6955L8.11997 6.63917V22.7034C8.11997 23.4277 8.68795 24 9.41365 24H10.5283C11.254 24 11.8793 23.4277 11.8793 22.7034L11.8793 6.5818L16.9836 11.6953C17.2315 11.9425 17.553 12.0787 17.9054 12.0787C18.2574 12.0787 18.5836 11.9425 18.8312 11.6953L19.6171 10.9084C19.8649 10.661 20 10.3314 20 9.97943C20 9.62783 19.8632 9.29807 19.6154 9.05066L10.9335 0.383416C10.6849 0.135418 10.353 -0.000970419 10.0002 5.19809e-06C9.64624 -0.000775268 9.31417 0.135418 9.06595 0.383611Z" fill="white"/>
</svg>
