<svg width="7" height="6" viewBox="0 0 7 6" fill="none" xmlns="http://www.w3.org/2000/svg">
<path d="M0.420734 2.51029C0.449377 2.50565 0.478363 2.5035 0.507365 2.50388H5.44572L5.33804 2.45379C5.23279 2.40397 5.13703 2.33617 5.05506 2.25345L3.67022 0.868614C3.48784 0.694507 3.45719 0.414425 3.5976 0.204993C3.76102 -0.018181 4.07441 -0.0666379 4.2976 0.0967789C4.31563 0.109989 4.33277 0.124388 4.34887 0.139883L6.8531 2.64411C7.04881 2.8396 7.04898 3.15671 6.85349 3.35242C6.85337 3.35255 6.85362 3.3523 6.85349 3.35242L4.34887 5.85704C4.15301 6.05236 3.8359 6.05192 3.64057 5.85606C3.6252 5.84064 3.61084 5.82424 3.5976 5.80696C3.45719 5.59753 3.48784 5.31744 3.67022 5.14334L5.05256 3.75599C5.12604 3.68243 5.21053 3.62075 5.30298 3.57318L5.45324 3.50557H0.534927C0.279073 3.51507 0.0545998 3.33635 0.00653421 3.08486C-0.0377437 2.81182 0.147695 2.55459 0.420734 2.51029Z" fill="#4DCA71"/>
</svg>
