<svg width="15" height="15" viewBox="0 0 15 15" fill="none" xmlns="http://www.w3.org/2000/svg">
<path d="M12.8693 1.36364H11.5909V0.681818C11.5909 0.500989 11.5191 0.327566 11.3912 0.1997C11.2633 0.0718342 11.0899 0 10.9091 0C10.7283 0 10.5548 0.0718342 10.427 0.1997C10.2991 0.327566 10.2273 0.500989 10.2273 0.681818V1.36364H8.18182V0.681818C8.18182 0.500989 8.10998 0.327566 7.98212 0.1997C7.85425 0.0718342 7.68083 0 7.5 0C7.31917 0 7.14575 0.0718342 7.01788 0.1997C6.89002 0.327566 6.81818 0.500989 6.81818 0.681818V1.36364H4.77273V0.681818C4.77273 0.500989 4.70089 0.327566 4.57303 0.1997C4.44516 0.0718342 4.27174 0 4.09091 0C3.91008 0 3.73666 0.0718342 3.60879 0.1997C3.48093 0.327566 3.40909 0.500989 3.40909 0.681818V1.36364H2.13068C1.56581 1.36436 1.02428 1.58907 0.624859 1.9885C0.225435 2.38792 0.000721649 2.92945 0 3.49432V5.45455H15V3.49432C14.9993 2.92945 14.7746 2.38792 14.3751 1.9885C13.9757 1.58907 13.4342 1.36436 12.8693 1.36364Z" fill="#2FC158"/>
<path d="M0 12.8693C0.000721649 13.4342 0.225435 13.9757 0.624859 14.3751C1.02428 14.7746 1.56581 14.9993 2.13068 15H12.8693C13.4342 14.9993 13.9757 14.7746 14.3751 14.3751C14.7746 13.9757 14.9993 13.4342 15 12.8693V6.81818H0V12.8693ZM4.9725 10.1298C5.10036 10.002 5.27375 9.93015 5.45455 9.93015C5.63534 9.93015 5.80873 10.002 5.93659 10.1298L6.81818 11.0107L9.06341 8.76614C9.192 8.64194 9.36423 8.57321 9.543 8.57477C9.72177 8.57632 9.89278 8.64803 10.0192 8.77444C10.1456 8.90086 10.2173 9.07187 10.2189 9.25064C10.2204 9.42941 10.1517 9.60163 10.0275 9.73023L7.30023 12.4575C7.17237 12.5853 6.99898 12.6571 6.81818 12.6571C6.63739 12.6571 6.464 12.5853 6.33614 12.4575L4.9725 11.0939C4.84468 10.966 4.77287 10.7926 4.77287 10.6118C4.77287 10.431 4.84468 10.2576 4.9725 10.1298Z" fill="#2FC158"/>
</svg>
