<svg width="14" height="14" viewBox="0 0 14 14" fill="none" xmlns="http://www.w3.org/2000/svg">
<path d="M12.3871 4.86165H6.54792C5.65832 4.86165 4.935 5.59354 4.935 6.49003V12.3716C4.935 13.2681 5.65832 14 6.54792 14H12.3871C13.2767 14 14 13.2681 14 12.3716V6.49003C14 5.59354 13.2767 4.86165 12.3871 4.86165ZM7.74959 8.76507C7.16333 8.76507 6.68791 8.28595 6.68791 7.69809C6.68791 7.1073 7.16333 6.62819 7.74959 6.62819C8.33292 6.62819 8.80834 7.1073 8.80834 7.69809C8.80834 8.28595 8.33292 8.76507 7.74959 8.76507ZM11.1854 12.2305C10.6021 12.2305 10.1267 11.7514 10.1267 11.1636C10.1267 10.5728 10.6021 10.0936 11.1854 10.0936C11.7717 10.0936 12.2442 10.5728 12.2442 11.1636C12.2442 11.7514 11.7717 12.2305 11.1854 12.2305Z" fill="#2FC158"/>
<path d="M6.54792 4.27379H9.06501V1.62545C9.06501 0.728964 8.34166 0 7.45208 0H1.61291C0.723328 0 0 0.728964 0 1.62545V7.50999C0 8.40648 0.723328 9.13542 1.61291 9.13542H4.35166V6.49003C4.35166 5.26728 5.3375 4.27379 6.54792 4.27379ZM6.25333 1.76654C6.83667 1.76654 7.31209 2.24565 7.31209 2.83351C7.31209 3.42432 6.83667 3.90049 6.25333 3.90049C5.66708 3.90049 5.19166 3.42432 5.19166 2.83351C5.19166 2.24565 5.66708 1.76654 6.25333 1.76654ZM2.81457 7.36596C2.22834 7.36596 1.75292 6.88978 1.75292 6.29899C1.75292 5.70818 2.22834 5.23201 2.81457 5.23201C3.39791 5.23201 3.87332 5.70818 3.87332 6.29899C3.87332 6.88978 3.39791 7.36596 2.81457 7.36596ZM2.81457 3.90049C2.22834 3.90049 1.75292 3.42432 1.75292 2.83351C1.75292 2.24565 2.22834 1.76654 2.81457 1.76654C3.39791 1.76654 3.87332 2.24565 3.87332 2.83351C3.87332 3.42432 3.39791 3.90049 2.81457 3.90049Z" fill="#2FC158"/>
</svg>
