<svg width="16" height="16" viewBox="0 0 16 16" fill="none" xmlns="http://www.w3.org/2000/svg">
<path d="M15.5263 8.97037C15.7879 8.97037 16 8.75844 16 8.49706L16 1.54525C16 1.28384 15.7879 1.07194 15.5263 1.07194L12.6725 1.07194L12.6725 8.97037L15.5263 8.97037Z" fill="#B0B9C4"/>
<path d="M8.43048e-07 6.35665C7.90521e-07 6.9575 0.32309 7.48437 0.804769 7.77294C0.620223 8.03922 0.511985 8.36225 0.511985 8.70997C0.511984 9.61975 1.25273 10.3599 2.16321 10.3599L5.64892 10.3599C5.54209 10.8437 5.39598 11.5696 5.29424 12.3295C5.02948 14.307 5.21043 15.4037 5.86364 15.7809C6.27089 16.016 6.70997 16.0637 7.10002 15.9153C7.40134 15.8006 7.80828 15.5187 8.04017 14.8266L8.9563 12.4297C9.42075 11.2836 10.8431 10.0803 11.7251 9.41494L11.7251 0.8625C10.0903 0.290124 8.3844 -6.65777e-07 6.64402 -8.17926e-07L2.84595 -1.14996e-06C1.93547 -1.22956e-06 1.19472 0.740186 1.19472 1.64997C1.19472 1.96856 1.28557 2.26637 1.44272 2.51884C0.892273 2.78672 0.512046 3.35153 0.512046 4.00331C0.512046 4.35106 0.620284 4.67403 0.804831 4.94034C0.32309 5.2289 8.95575e-07 5.75581 8.43048e-07 6.35665Z" fill="#B0B9C4"/>
</svg>
