<svg width="15" height="14" viewBox="0 0 15 14" fill="none" xmlns="http://www.w3.org/2000/svg">
<path d="M13.1305 1.526C11.6421 0.112 8.34105 0 7.36842 0C6.39579 0 3.09474 0.112 1.60632 1.526C0.117895 2.94 0 6.076 0 7C0 7.924 0.117895 11.06 1.60632 12.474C3.09474 13.888 6.39579 14 7.36842 14C8.34105 14 11.6421 13.888 13.1305 12.474C14.6189 11.06 14.7368 7.924 14.7368 7C14.7368 6.076 14.6189 2.94 13.1305 1.526ZM8.8421 11.2H5.89474C5.69931 11.2 5.5119 11.1263 5.37371 10.995C5.23553 10.8637 5.1579 10.6857 5.1579 10.5C5.1579 10.3143 5.23553 10.1363 5.37371 10.005C5.5119 9.87375 5.69931 9.8 5.89474 9.8H8.8421C9.03753 9.8 9.22495 9.87375 9.36313 10.005C9.50132 10.1363 9.57895 10.3143 9.57895 10.5C9.57895 10.6857 9.50132 10.8637 9.36313 10.995C9.22495 11.1263 9.03753 11.2 8.8421 11.2ZM10.1021 6.797L7.89158 8.897C7.82308 8.96261 7.74158 9.01469 7.65179 9.05022C7.562 9.08576 7.46569 9.10406 7.36842 9.10406C7.27115 9.10406 7.17484 9.08576 7.08505 9.05022C6.99526 9.01469 6.91376 8.96261 6.84526 8.897L4.63474 6.797C4.49599 6.66519 4.41804 6.48641 4.41804 6.3C4.41804 6.11359 4.49599 5.93481 4.63474 5.803C4.77349 5.67119 4.96167 5.59714 5.1579 5.59714C5.35412 5.59714 5.5423 5.67119 5.68105 5.803L6.63158 6.713V3.5C6.63158 3.31435 6.70921 3.1363 6.84739 3.00503C6.98558 2.87375 7.173 2.8 7.36842 2.8C7.56384 2.8 7.75126 2.87375 7.88945 3.00503C8.02763 3.1363 8.10526 3.31435 8.10526 3.5V6.713L9.05579 5.803C9.19454 5.67119 9.38272 5.59714 9.57895 5.59714C9.77517 5.59714 9.96336 5.67119 10.1021 5.803C10.2409 5.93481 10.3188 6.11359 10.3188 6.3C10.3188 6.48641 10.2409 6.66519 10.1021 6.797Z" fill="white"/>
</svg>
