<svg width="13" height="13" viewBox="0 0 13 13" fill="none" xmlns="http://www.w3.org/2000/svg">
<path d="M12.0476 0.951905C11.0958 -5.81145e-08 9.56364 0 6.49954 0C3.43541 0 1.90335 -5.81145e-08 0.95145 0.951905C0.459082 1.44427 0.22139 2.09186 0.106639 3.02639C0.451575 2.64246 0.866034 2.32263 1.33143 2.0855C1.8394 1.82668 2.38332 1.72172 2.98555 1.67252C3.56739 1.62498 4.28331 1.62499 5.1587 1.625H7.84037C8.71579 1.62499 9.43169 1.62498 10.0135 1.67252C10.6158 1.72172 11.1597 1.82668 11.6676 2.0855C12.133 2.32263 12.5475 2.64246 12.8924 3.02639C12.7777 2.09186 12.54 1.44427 12.0476 0.951905Z" fill="white"/>
<path fill-rule="evenodd" clip-rule="evenodd" d="M0 7.8C0 5.9798 5.81145e-08 5.06975 0.354231 4.37453C0.665815 3.76301 1.16301 3.26581 1.77453 2.95423C2.46975 2.6 3.37983 2.6 5.2 2.6H7.8C9.62019 2.6 10.5303 2.6 11.2255 2.95423C11.837 3.26581 12.3342 3.76301 12.6458 4.37453C13 5.06975 13 5.9798 13 7.8C13 9.62019 13 10.5303 12.6458 11.2255C12.3342 11.837 11.837 12.3342 11.2255 12.6458C10.5303 13 9.62019 13 7.8 13H5.2C3.37983 13 2.46975 13 1.77453 12.6458C1.16301 12.3342 0.665815 11.837 0.354231 11.2255C5.81145e-08 10.5303 0 9.62019 0 7.8ZM6.8447 10.0947C6.7533 10.1861 6.62928 10.2375 6.5 10.2375C6.37072 10.2375 6.24669 10.1861 6.1553 10.0947L4.53029 8.4697C4.33991 8.27931 4.33991 7.97069 4.53029 7.7803C4.72066 7.58992 5.02934 7.58992 5.2197 7.7803L6.0125 8.57304V5.85C6.0125 5.58077 6.23077 5.3625 6.5 5.3625C6.76923 5.3625 6.9875 5.58077 6.9875 5.85V8.57304L7.7803 7.7803C7.97069 7.58992 8.27931 7.58992 8.4697 7.7803C8.66008 7.97069 8.66008 8.27931 8.4697 8.4697L6.8447 10.0947Z" fill="white"/>
</svg>
