<svg width="15" height="15" viewBox="0 0 15 15" fill="none" xmlns="http://www.w3.org/2000/svg">
<path d="M14.8723 3.42282L11.5772 0.127681C11.4135 -0.042575 11.1193 -0.0425457 10.9556 0.127681L7.6605 3.42282C7.53481 3.54851 7.49722 3.73755 7.56522 3.90177C7.63325 4.06599 7.79352 4.17307 7.97125 4.17307H9.41472V14.5605C9.41472 14.8032 9.61149 15 9.8542 15H12.6786C12.9213 15 13.1181 14.8032 13.1181 14.5605V4.17307H14.5616C14.7393 4.17307 14.8996 4.06599 14.9676 3.90177C15.0356 3.73755 14.998 3.54854 14.8723 3.42282Z" fill="#2FC158"/>
<path d="M7.97127 6.11852H5.14686C4.90415 6.11852 4.70737 6.3153 4.70737 6.55801V14.5605C4.70737 14.8032 4.90415 15 5.14686 15H7.97127C8.21399 15 8.41076 14.8032 8.41076 14.5605V6.55801C8.41076 6.3153 8.21399 6.11852 7.97127 6.11852Z" fill="#2FC158"/>
<path d="M3.2639 9.8844H0.439484C0.196772 9.8844 0 10.0812 0 10.3239V14.5605C0 14.8032 0.196772 15 0.439484 15H3.2639C3.50661 15 3.70339 14.8032 3.70339 14.5605V10.3239C3.70339 10.0812 3.50661 9.8844 3.2639 9.8844Z" fill="#2FC158"/>
</svg>
