<svg width="16" height="16" viewBox="0 0 16 16" fill="none" xmlns="http://www.w3.org/2000/svg">
<path d="M0.473672 7.02963C0.212067 7.02963 0 7.24156 0 7.50294V14.4548C0 14.7162 0.212099 14.9281 0.473672 14.9281H3.3275V7.02963H0.473672Z" fill="#2FC158"/>
<path d="M16 9.64334C16 9.0425 15.6769 8.51563 15.1952 8.22706C15.3798 7.96078 15.488 7.63775 15.488 7.29003C15.488 6.38025 14.7473 5.64006 13.8368 5.64006H10.3511C10.4579 5.15631 10.604 4.43041 10.7058 3.6705C10.9705 1.69297 10.7896 0.596252 10.1364 0.219096C9.72911 -0.0159978 9.29003 -0.0636853 8.89998 0.0846897C8.59866 0.199377 8.19172 0.481346 7.95983 1.17338L7.0437 3.57028C6.57925 4.71644 5.15695 5.91972 4.27487 6.58506V15.1375C5.90968 15.7099 7.6156 16 9.35598 16H13.1541C14.0645 16 14.8053 15.2598 14.8053 14.35C14.8053 14.0314 14.7144 13.7336 14.5573 13.4812C15.1077 13.2133 15.488 12.6485 15.488 11.9967C15.488 11.6489 15.3797 11.326 15.1952 11.0597C15.6769 10.7711 16 10.2442 16 9.64334Z" fill="#2FC158"/>
</svg>
