<svg width="13" height="14" viewBox="0 0 13 14" fill="none" xmlns="http://www.w3.org/2000/svg">
<path d="M12.5443 7.89771C12.4128 7.86469 12.2812 7.89771 12.1661 7.98025C11.7387 8.34347 11.2455 8.64064 10.7029 8.83875C10.1933 9.03687 9.63427 9.13593 9.0424 9.13593C7.7107 9.13593 6.49409 8.59111 5.62273 7.7161C4.75137 6.84109 4.20883 5.61938 4.20883 4.2821C4.20883 3.72077 4.30747 3.17595 4.47188 2.68066C4.65273 2.15236 4.91578 1.67358 5.26103 1.26084C5.409 1.07923 5.37612 0.815077 5.19527 0.66649C5.08019 0.583942 4.94866 0.550923 4.81713 0.583942C3.41967 0.963664 2.20306 1.80565 1.3317 2.92831C0.493222 4.03445 0 5.40475 0 6.89062C0 8.69017 0.723392 10.3246 1.90713 11.5133C3.09086 12.702 4.70205 13.4284 6.51053 13.4284C8.02308 13.4284 9.42054 12.9001 10.5385 12.0251C11.6729 11.1336 12.495 9.86235 12.8402 8.4095C12.906 8.17837 12.7745 7.94724 12.5443 7.89771Z" fill="#CAD2DE"/>
</svg>
