<svg width="17" height="15" viewBox="0 0 17 15" fill="none" xmlns="http://www.w3.org/2000/svg">
<path d="M8.5 5.84235C10.0954 5.84235 11.3887 4.5345 11.3887 2.92118C11.3887 1.30785 10.0954 0 8.5 0C6.90463 0 5.61133 1.30785 5.61133 2.92118C5.61133 4.5345 6.90463 5.84235 8.5 5.84235Z" fill="#2FC158"/>
<path d="M14.3438 5.84232C15.3523 5.84232 16.1699 5.01551 16.1699 3.9956C16.1699 2.97568 15.3523 2.14888 14.3438 2.14888C13.3352 2.14888 12.5176 2.97568 12.5176 3.9956C12.5176 5.01551 13.3352 5.84232 14.3438 5.84232Z" fill="#2FC158"/>
<path d="M2.65625 5.84232C3.66482 5.84232 4.48242 5.01551 4.48242 3.9956C4.48242 2.97568 3.66482 2.14888 2.65625 2.14888C1.64768 2.14888 0.830078 2.97568 0.830078 3.9956C0.830078 5.01551 1.64768 5.84232 2.65625 5.84232Z" fill="#2FC158"/>
<path d="M4.45553 7.50071C3.73668 6.90512 3.08567 6.98396 2.25449 6.98396C1.01137 6.98396 0 8.00066 0 9.25005V12.917C0 13.4596 0.437949 13.9008 0.976504 13.9008C3.30159 13.9008 3.02148 13.9433 3.02148 13.7994C3.02148 11.201 2.71714 9.29548 4.45553 7.50071Z" fill="#2FC158"/>
<path d="M9.29057 6.99736C7.83879 6.8749 6.57691 6.99877 5.48848 7.90729C3.66705 9.38265 4.01758 11.3691 4.01758 13.7993C4.01758 14.4423 4.53488 14.9752 5.18035 14.9752C12.1889 14.9752 12.4679 15.2038 12.8835 14.2731C13.0198 13.9584 12.9824 14.0584 12.9824 11.0474C12.9824 8.65585 10.9347 6.99736 9.29057 6.99736Z" fill="#2FC158"/>
<path d="M14.7455 6.98393C13.9098 6.98393 13.2624 6.90589 12.5445 7.50067C14.2699 9.28212 13.9785 11.0576 13.9785 13.7993C13.9785 13.9442 13.746 13.9007 15.9886 13.9007C16.5464 13.9007 17 13.4438 17 12.882V9.25002C17 8.00063 15.9886 6.98393 14.7455 6.98393Z" fill="#2FC158"/>
</svg>
