<svg width="9" height="7" viewBox="0 0 9 7" fill="none" xmlns="http://www.w3.org/2000/svg">
<path d="M8.99997 1.2672C9.00157 1.01634 8.93345 0.770693 8.80436 0.561751C8.67527 0.352809 8.49109 0.190102 8.27544 0.0944959C8.0598 -0.00111091 7.82251 -0.0252579 7.59401 0.0251509C7.36552 0.0755598 7.15623 0.198226 6.99299 0.37742L4.4865 3.08753L1.96886 0.37742C1.74692 0.155008 1.45339 0.0339245 1.15008 0.03968C0.846784 0.0454354 0.557401 0.17758 0.342901 0.408273C0.128402 0.638967 0.00553354 0.950197 0.000182166 1.2764C-0.00516921 1.6026 0.107414 1.91829 0.314213 2.15698L4.32817 6.47398C4.3489 6.49646 4.37357 6.5143 4.40074 6.52648C4.42791 6.53865 4.45706 6.54492 4.4865 6.54492C4.51594 6.54492 4.54509 6.53865 4.57226 6.52648C4.59943 6.5143 4.6241 6.49646 4.64483 6.47398L8.65879 2.15698C8.87738 1.92054 9.00005 1.60063 8.99997 1.2672Z" fill="#2FC158"/>
</svg>
