<svg width="20" height="20" viewBox="0 0 20 20" fill="none" xmlns="http://www.w3.org/2000/svg">
<path d="M19.6395 17.8965L15.0404 13.2967C17.4421 10.0399 17.1601 5.36636 14.2356 2.44234C12.6602 0.867474 10.5659 0 8.33877 0C6.11135 0 4.01738 0.867474 2.44263 2.44234C0.867473 4.01775 0 6.1115 0 8.33848C0 10.5658 0.867473 12.6599 2.44263 14.2354C4.01735 15.8105 6.11135 16.678 8.33914 16.678C10.1419 16.678 11.8697 16.1027 13.2984 15.0417L17.8964 19.6389C18.1292 19.8719 18.4386 20 18.7677 20C19.0978 20 19.408 19.871 19.6381 19.6399C19.8713 19.4074 19.9999 19.0978 20 18.7683C20.0003 18.4388 19.8722 18.1291 19.6394 17.8962L19.6395 17.8965ZM8.33855 2.46474C9.90739 2.46474 11.3823 3.07573 12.4921 4.18547C13.5996 5.2928 14.2096 6.76766 14.2096 8.33867C14.2096 9.90967 13.5996 11.3846 12.492 12.4922C11.3826 13.6017 9.90761 14.2127 8.33877 14.2127C6.76993 14.2127 5.29507 13.6017 4.18521 12.4922C3.07573 11.3832 2.46474 9.90817 2.46474 8.33867C2.46474 6.76983 3.07573 5.29496 4.18521 4.18547C5.29514 3.07598 6.77001 2.46474 8.33877 2.46474L8.33855 2.46474Z" fill="#4DCA71"/>
</svg>
