<svg width="20" height="18" viewBox="0 0 20 18" fill="none" xmlns="http://www.w3.org/2000/svg">
<path d="M17.5 5.14282L15 8.99998H16.25C16.25 12.5445 13.4461 15.4286 10 15.4286C7.87952 15.4286 6.0084 14.3311 4.87789 12.6651L3.42044 14.9138C5.0256 16.8007 7.37667 18 10 18C14.8248 18 18.75 13.9626 18.75 8.99998H20L17.5 5.14282Z" fill="#4DCA71"/>
<path d="M3.75 8.99998C3.75 5.45547 6.55395 2.57139 9.99998 2.57139C12.1205 2.57139 13.9916 3.66884 15.1221 5.33486L16.5796 3.08621C14.9744 1.1993 12.6233 0 9.99998 0C5.17515 0 1.25001 4.03735 1.25001 9.00002H0L2.49998 12.8572L4.99997 9.00002L3.75 8.99998Z" fill="#4DCA71"/>
</svg>
