<svg width="19" height="19" viewBox="0 0 19 19" fill="none" xmlns="http://www.w3.org/2000/svg">
<path fill-rule="evenodd" clip-rule="evenodd" d="M8.51868 0.0235723C6.9192 0.224497 5.49658 0.742854 4.17274 1.60706C3.44215 2.08394 2.19504 3.31682 1.67659 4.07473C0.778251 5.38797 0.203544 6.9197 0.0299574 8.46355L0 8.72992L0.683055 9.01311C1.05871 9.16881 2.2028 9.64233 3.22546 10.0653L5.08481 10.8343L5.51948 10.6362C5.79153 10.5122 6.11343 10.4223 6.37977 10.3959L6.80534 10.3536L7.94949 8.70462C9.08646 7.06595 9.09365 7.05346 9.09647 6.70679C9.1025 5.97222 9.56668 5.03908 10.2342 4.41975C11.6412 3.11431 13.7845 3.15452 15.1577 4.51228C15.884 5.23023 16.2143 6.01528 16.2158 7.02644C16.2171 8.00138 15.8581 8.88499 15.1867 9.55918C14.5871 10.1612 13.9566 10.4645 13.0297 10.5968L12.4977 10.6728L10.9339 11.7817L9.37019 12.8905L9.32798 13.2394C9.16748 14.5656 8.28999 15.5109 7.03537 15.7091C5.77511 15.9081 4.52954 15.1565 4.09884 13.937L3.97561 13.5882L2.18978 12.8459C0.920726 12.3184 0.398235 12.1284 0.384379 12.1893C0.359297 12.2999 0.739185 13.2725 1.03202 13.8475C1.89912 15.5498 3.50887 17.1344 5.2471 17.9968C10.4773 20.5916 16.7843 17.9495 18.5773 12.4126C18.9253 11.3379 19.0027 10.7987 18.9999 9.4657C18.9979 8.47477 18.9727 8.1463 18.858 7.61704C18.4366 5.67242 17.6019 4.13986 16.2189 2.77189C14.8504 1.41818 13.2618 0.557912 11.4181 0.172173C10.8092 0.0447556 9.0626 -0.0447345 8.51868 0.0235723ZM11.9827 4.73369C9.85939 5.4127 9.65514 8.26135 11.662 9.20598C12.0324 9.38033 12.1435 9.40227 12.6563 9.40227C13.1568 9.40227 13.2867 9.37804 13.6327 9.21999C14.0721 9.01939 14.5778 8.54276 14.7921 8.12759C14.9772 7.76881 15.0851 7.15449 15.034 6.75017C14.9368 5.98046 14.3682 5.20436 13.6631 4.879C13.3648 4.7413 13.1918 4.70782 12.7204 4.6964C12.4029 4.68866 12.0709 4.70547 11.9827 4.73369ZM13.4261 5.42342C14.0518 5.74288 14.4175 6.34489 14.4175 7.05561C14.4175 7.55926 14.2972 7.88399 13.9769 8.24467C13.313 8.9923 11.9992 8.99186 11.3348 8.24378C10.5082 7.31292 10.86 5.82628 12.0143 5.373C12.425 5.21171 13.0553 5.23423 13.4261 5.42342ZM6.16122 11.0866C6.04659 11.1215 5.95274 11.1599 5.95274 11.172C5.95274 11.184 6.25481 11.3161 6.62392 11.4656C7.40654 11.7823 7.6827 11.9859 7.88214 12.3932C8.34542 13.3394 7.69469 14.4351 6.63554 14.4922C6.28766 14.511 6.15904 14.4799 5.53968 14.2267C5.15377 14.0689 4.82879 13.9489 4.81756 13.96C4.80634 13.9711 4.88409 14.0988 4.99031 14.2438C5.88743 15.4683 7.74819 15.2969 8.46236 13.924C8.67386 13.5174 8.70093 12.8088 8.52285 12.3421C8.23874 11.5979 7.57698 11.107 6.78353 11.0518C6.55593 11.0361 6.27585 11.0517 6.16122 11.0866Z" fill="#2FC158"/>
</svg>
