<svg width="14" height="14" viewBox="0 0 14 14" fill="none" xmlns="http://www.w3.org/2000/svg">
<path d="M6.99401 3.03361C6.20936 3.03347 5.44229 3.26604 4.78981 3.70193C4.13732 4.13781 3.62873 4.75743 3.32836 5.48241C3.02798 6.2074 2.94931 7.00519 3.10229 7.7749C3.25528 8.5446 3.63304 9.25165 4.18782 9.80662C4.7426 10.3616 5.44946 10.7395 6.21902 10.8927C6.98858 11.0459 7.78627 10.9674 8.51121 10.6671C9.23615 10.3668 9.85577 9.85826 10.2917 9.20577C10.7277 8.55327 10.9604 7.78614 10.9604 7.00137C10.9593 5.94953 10.5411 4.94106 9.79751 4.19722C9.05393 3.45338 8.0457 3.03491 6.99401 3.03361Z" fill="white"/>
<path d="M13.2999 6.3012H12.3675C12.1818 6.3012 12.0037 6.37497 11.8724 6.50628C11.7411 6.63759 11.6674 6.81568 11.6674 7.00137C11.6674 7.18707 11.7411 7.36516 11.8724 7.49647C12.0037 7.62777 12.1818 7.70154 12.3675 7.70154H13.2999C13.4856 7.70154 13.6637 7.62777 13.795 7.49647C13.9262 7.36516 14 7.18707 14 7.00137C14 6.81568 13.9262 6.63759 13.795 6.50628C13.6637 6.37497 13.4856 6.3012 13.2999 6.3012Z" fill="white"/>
<path d="M6.99401 11.6667C6.80847 11.667 6.63062 11.7408 6.49947 11.8721C6.36831 12.0033 6.29457 12.1813 6.29441 12.3668V13.3003C6.29441 13.4859 6.36811 13.6639 6.4993 13.7951C6.63049 13.9263 6.80842 14 6.99395 14C7.17949 14 7.35742 13.9263 7.48861 13.7951C7.6198 13.6639 7.6935 13.4859 7.6935 13.3003V12.3668C7.69337 12.1813 7.61965 12.0034 7.48851 11.8721C7.35738 11.7408 7.17954 11.667 6.99401 11.6667Z" fill="white"/>
<path d="M2.33202 7.00137C2.33186 6.8158 2.25812 6.63787 2.12696 6.50661C1.99581 6.37536 1.81795 6.30148 1.63241 6.3012H0.700065C0.514396 6.3012 0.336332 6.37497 0.205044 6.50628C0.0737566 6.63759 0 6.81568 0 7.00137C0 7.18707 0.0737566 7.36516 0.205044 7.49647C0.336332 7.62777 0.514396 7.70154 0.700065 7.70154H1.63242C1.81796 7.70126 1.99581 7.62739 2.12697 7.49613C2.25812 7.36487 2.33186 7.18694 2.33202 7.00137Z" fill="white"/>
<path d="M6.99401 2.33333C7.17955 2.33305 7.3574 2.25918 7.48856 2.12792C7.61971 1.99667 7.69346 1.81874 7.69362 1.63317V0.699653C7.69362 0.514093 7.61992 0.336134 7.48873 0.204923C7.35753 0.0737132 7.1796 0 6.99407 0C6.80854 0 6.6306 0.0737132 6.49941 0.204923C6.36822 0.336134 6.29452 0.514093 6.29452 0.699653V1.63317C6.29466 1.81873 6.36838 1.99665 6.49951 2.12791C6.63065 2.25917 6.80849 2.33305 6.99401 2.33333Z" fill="white"/>
<path d="M11.284 3.70024L11.944 3.04015C12.0092 2.97523 12.0609 2.89809 12.0963 2.81315C12.1316 2.72821 12.1498 2.63713 12.1499 2.54514C12.15 2.45314 12.1319 2.36203 12.0968 2.27702C12.0616 2.19201 12.0101 2.11477 11.945 2.04972C11.88 1.98467 11.8027 1.93308 11.7177 1.89792C11.6328 1.86276 11.5417 1.8447 11.4497 1.84479C11.3577 1.84488 11.2666 1.86312 11.1817 1.89845C11.0968 1.93378 11.0196 1.98551 10.9547 2.05069L10.2947 2.71079C10.2296 2.77571 10.1778 2.85285 10.1425 2.93779C10.1072 3.02273 10.089 3.11381 10.0889 3.2058C10.0888 3.2978 10.1068 3.38891 10.142 3.47392C10.1771 3.55893 10.2287 3.63617 10.2938 3.70122C10.3588 3.76627 10.436 3.81785 10.521 3.85302C10.606 3.88818 10.6971 3.90623 10.7891 3.90614C10.8811 3.90605 10.9721 3.88781 11.0571 3.85248C11.142 3.81715 11.2191 3.76542 11.284 3.70024Z" fill="white"/>
<path d="M11.284 10.3026C11.219 10.2374 11.1419 10.1857 11.057 10.1504C10.9721 10.1151 10.881 10.0969 10.789 10.0968C10.6971 10.0967 10.606 10.1148 10.521 10.1499C10.436 10.1851 10.3588 10.2367 10.2938 10.3017C10.2287 10.3667 10.1772 10.444 10.142 10.529C10.1069 10.614 10.0888 10.7051 10.0889 10.797C10.089 10.889 10.1072 10.9801 10.1425 11.065C10.1778 11.15 10.2295 11.2271 10.2946 11.292L10.9546 11.9521C11.0196 12.0173 11.0967 12.069 11.1816 12.1043C11.2665 12.1396 11.3576 12.1578 11.4496 12.1579C11.5415 12.158 11.6326 12.1399 11.7176 12.1048C11.8026 12.0696 11.8798 12.018 11.9448 11.953C12.0099 11.8879 12.0614 11.8107 12.0966 11.7257C12.1317 11.6407 12.1498 11.5496 12.1497 11.4576C12.1496 11.3657 12.1314 11.2746 12.0961 11.1897C12.0608 11.1047 12.0091 11.0276 11.944 10.9627L11.284 10.3026Z" fill="white"/>
<path d="M2.70398 10.3025L2.04399 10.9626C1.9788 11.0275 1.92706 11.1046 1.89171 11.1896C1.85637 11.2745 1.83813 11.3656 1.83803 11.4576C1.83793 11.5496 1.85598 11.6408 1.89113 11.7258C1.92629 11.8108 1.97787 11.8881 2.04292 11.9531C2.10797 12.0182 2.18521 12.0698 2.27022 12.1049C2.35523 12.1401 2.44634 12.1581 2.53833 12.158C2.63032 12.1579 2.72139 12.1397 2.80632 12.1043C2.89126 12.069 2.96838 12.0172 3.03329 11.952L3.6933 11.2919C3.75844 11.227 3.81015 11.1499 3.84546 11.0649C3.88076 10.98 3.89898 10.8889 3.89906 10.797C3.89914 10.705 3.88108 10.6139 3.84593 10.5289C3.81077 10.4439 3.7592 10.3667 3.69416 10.3016C3.62913 10.2366 3.55191 10.185 3.46693 10.1498C3.38195 10.1147 3.29086 10.0966 3.19889 10.0967C3.10692 10.0968 3.01587 10.115 2.93095 10.1503C2.84603 10.1856 2.7689 10.2373 2.70398 10.3025Z" fill="white"/>
<path d="M2.70407 3.70017C2.76901 3.76523 2.84613 3.81685 2.93103 3.85208C3.01593 3.88732 3.10693 3.90547 3.19885 3.90551C3.29077 3.90555 3.38179 3.88747 3.46672 3.85231C3.55164 3.81715 3.62881 3.76559 3.6938 3.70059C3.7588 3.63558 3.81035 3.5584 3.8455 3.47346C3.88066 3.38852 3.89874 3.29749 3.8987 3.20556C3.89866 3.11363 3.88051 3.02261 3.84528 2.9377C3.81005 2.85279 3.75843 2.77565 3.69338 2.7107L3.03338 2.0506C2.96848 1.98534 2.89135 1.93352 2.8064 1.89812C2.72145 1.86272 2.63035 1.84443 2.53832 1.8443C2.44629 1.84417 2.35514 1.86221 2.27009 1.89737C2.18504 1.93254 2.10776 1.98414 2.04268 2.04922C1.97761 2.11431 1.92601 2.1916 1.89086 2.27666C1.8557 2.36172 1.83766 2.45289 1.83779 2.54493C1.83792 2.63698 1.85621 2.72809 1.89161 2.81306C1.927 2.89802 1.97881 2.97516 2.04407 3.04007L2.70407 3.70017Z" fill="white"/>
</svg>
