<svg width="13" height="15" viewBox="0 0 13 15" fill="none" xmlns="http://www.w3.org/2000/svg">
<path d="M11.9904 3.27194C10.5777 3.27194 9.4284 2.0895 9.4284 0.636118C9.4284 0.412091 9.25187 0.230469 9.03411 0.230469H6.92243C6.70468 0.230469 6.52814 0.412091 6.52814 0.636118V9.54328C6.52814 10.3977 5.85245 11.0928 5.02191 11.0928C4.1914 11.0928 3.51574 10.3977 3.51574 9.54328C3.51574 8.68882 4.1914 7.99367 5.02191 7.99367C5.23967 7.99367 5.41621 7.81205 5.41621 7.58802V5.41553C5.41621 5.1915 5.23967 5.00988 5.02191 5.00988C2.5922 5.00988 0.615479 7.04353 0.615479 9.54328C0.615505 12.043 2.5922 14.0766 5.02194 14.0766C7.45168 14.0766 9.42843 12.043 9.42843 9.54328V5.60064C10.2132 6.03103 11.0864 6.25574 11.9904 6.25574C12.2082 6.25574 12.3847 6.07411 12.3847 5.85009V3.67759C12.3847 3.45357 12.2081 3.27194 11.9904 3.27194Z" fill="#2FC158"/>
</svg>
