<svg width="23" height="22" viewBox="0 0 23 22" fill="none" xmlns="http://www.w3.org/2000/svg">
<path d="M21.8974 14.3231C21.1514 14.33 20.5591 14.2733 20.1351 14.1571C18.8528 13.8043 18.4561 13.2993 18.4561 13.2993C18.3655 13.1693 18.2074 13.0987 18.0449 13.1209C17.8839 13.1416 17.7488 13.2481 17.6971 13.3962C17.6913 13.4128 17.0876 15.0937 15.5681 15.8242C13.9912 16.5837 11.132 16.3983 11.1032 16.3969C10.948 16.3831 10.81 16.4523 10.7252 16.5699C10.6389 16.6875 10.6231 16.8396 10.6835 16.9711L12.8771 21.7551C12.9461 21.9059 13.0999 22 13.2667 22C13.2882 22 13.3112 21.9986 13.3343 21.9945C17.434 21.3608 20.8696 18.6326 22.3014 14.8737C22.3503 14.7478 22.3301 14.6067 22.2496 14.496C22.1691 14.3881 22.0282 14.3148 21.8974 14.3231Z" fill="#2FC158"/>
<path d="M11.5 0C5.15919 0 0 4.96529 0 11.0678C0 15.9058 3.35656 20.2624 8.16356 21.6624C8.20381 21.6749 8.2455 21.6804 8.28719 21.6804C8.40506 21.6804 8.51862 21.6334 8.60056 21.5476C8.71125 21.4314 8.74288 21.2654 8.6825 21.1187C4.15006 10.1201 3.32925 7.56068 3.19988 6.97132C3.81081 6.66143 5.85781 6.23255 6.40119 6.31833C6.56075 6.5383 6.89138 7.31581 7.18463 8.00755C8.29869 10.6306 9.982 14.5956 12.3208 14.7561C13.9811 14.871 15.4747 14.265 16.33 13.1389C16.8489 12.454 17.0258 11.6807 16.7929 11.1204C16.4378 10.2681 14.8034 6.67803 14.2226 5.40385L16.7843 4.78682C17.3434 6.06653 19.3717 10.6334 20.3291 11.7402C20.7474 12.2216 21.4662 12.5177 22.4653 12.6173C22.7024 12.6366 22.908 12.4776 22.9324 12.2534C22.9784 11.8633 23 11.4635 23 11.0678C23 4.96529 17.8408 0 11.5 0Z" fill="#2FC158"/>
</svg>
