<svg width="16" height="13" viewBox="0 0 16 13" fill="none" xmlns="http://www.w3.org/2000/svg">
<path d="M13.1243 1.26347C12.1535 0.785362 11.1125 0.433091 10.0241 0.231315C10.0043 0.22742 9.98445 0.237159 9.97425 0.256605C9.84035 0.512218 9.69206 0.845649 9.58821 1.10774C8.41755 0.919602 7.25287 0.919602 6.10622 1.10774C6.00234 0.839837 5.84866 0.512218 5.71418 0.256605C5.70397 0.237797 5.68416 0.228058 5.66435 0.231315C4.57654 0.432421 3.53555 0.784691 2.56417 1.26347C2.55575 1.26737 2.54855 1.27385 2.54376 1.28228C0.569234 4.44878 0.0283027 7.53747 0.293652 10.5878C0.294841 10.6027 0.302665 10.617 0.313463 10.6261C1.6162 11.653 2.87816 12.2765 4.11664 12.6897C4.13645 12.6962 4.15745 12.6885 4.17007 12.6709C4.46302 12.2415 4.72417 11.7887 4.94808 11.3125C4.96129 11.2846 4.94868 11.2515 4.92167 11.2405C4.50743 11.0718 4.11301 10.8661 3.73358 10.6326C3.70356 10.6138 3.70115 10.5677 3.72879 10.5457C3.80863 10.4814 3.8885 10.4146 3.96475 10.3471C3.97855 10.3348 3.99777 10.3322 4.01398 10.34C6.50659 11.5616 9.20515 11.5616 11.6683 10.34C11.6846 10.3316 11.7038 10.3342 11.7182 10.3465C11.7944 10.4139 11.8743 10.4814 11.9547 10.5456C11.9823 10.5677 11.9805 10.6138 11.9505 10.6326C11.5711 10.8707 11.1767 11.0718 10.7618 11.2398C10.7348 11.2508 10.7228 11.2846 10.7361 11.3124C10.9648 11.788 11.2259 12.2408 11.5135 12.6703C11.5255 12.6884 11.5471 12.6962 11.5669 12.6897C12.8114 12.2765 14.0733 11.653 15.3761 10.6261C15.3875 10.617 15.3947 10.6034 15.3959 10.5884C15.7135 7.06188 14.864 3.99852 13.144 1.28289C13.1398 1.27385 13.1326 1.26737 13.1243 1.26347ZM5.32038 8.73047C4.56993 8.73047 3.95157 7.99093 3.95157 7.08267C3.95157 6.1744 4.55791 5.43487 5.32038 5.43487C6.08879 5.43487 6.70117 6.18092 6.68915 7.08267C6.68915 7.99093 6.08278 8.73047 5.32038 8.73047ZM10.3813 8.73047C9.63084 8.73047 9.01248 7.99093 9.01248 7.08267C9.01248 6.1744 9.61882 5.43487 10.3813 5.43487C11.1497 5.43487 11.762 6.18092 11.7501 7.08267C11.7501 7.99093 11.1497 8.73047 10.3813 8.73047Z" fill="#2FC158"/>
</svg>
