<svg width="10" height="10" viewBox="0 0 10 10" fill="none" xmlns="http://www.w3.org/2000/svg">
<path d="M9.226 6.0762C8.74 5.82668 8.134 5.99811 7.871 6.46001C7.297 7.46858 6.197 8.09524 5 8.09524C4.389 8.09524 3.81 7.91905 3.304 7.62477L3.78 7.17144C3.994 6.96763 4.059 6.66001 3.943 6.39334C3.827 6.12668 3.553 5.95239 3.25 5.95239H0.75C0.336 5.95239 0 6.27239 0 6.66668V9.04762C0 9.33619 0.183 9.59715 0.463 9.70762C0.556 9.74476 0.653 9.76191 0.75 9.76191C0.945 9.76191 1.137 9.68953 1.28 9.55238L1.853 9.00667C2.752 9.64572 3.851 10 5 10C6.932 10 8.706 8.99143 9.629 7.36763C9.892 6.90477 9.712 6.32763 9.226 6.0762Z" fill="#FAFDFF"/>
<path d="M9.537 0.29238C9.257 0.181904 8.934 0.242857 8.72 0.447618L8.147 0.993331C7.248 0.354285 6.149 0 5 0C3.064 0 1.29 1.01333 0.369002 2.6438C0.108002 3.10761 0.290001 3.68475 0.776001 3.93332C0.927001 4.01046 1.089 4.04666 1.249 4.04666C1.605 4.04666 1.95 3.86475 2.131 3.5457C2.702 2.53333 3.802 1.90476 5 1.90476C5.611 1.90476 6.19 2.08095 6.696 2.37523L6.22 2.82856C6.006 3.03237 5.941 3.33999 6.057 3.60666C6.173 3.87332 6.447 4.04761 6.75 4.04761H9.25C9.664 4.04761 10 3.72761 10 3.33332V0.952378C10 0.663808 9.817 0.402856 9.537 0.29238Z" fill="#FAFDFF"/>
</svg>
