<svg width="15" height="15" viewBox="0 0 15 15" fill="none" xmlns="http://www.w3.org/2000/svg">
<path d="M8.16403 0C3.65204 0 0 3.65142 0 8.16403C0 8.40696 0.196934 8.60389 0.439864 8.60389H8.16403C8.40696 8.60389 8.60389 8.40696 8.60389 8.16403V0.439864C8.60389 0.196934 8.40696 0 8.16403 0Z" fill="#2FC158"/>
<path d="M5.03456 9.87559C4.95739 9.73467 4.80947 9.64707 4.64881 9.64707H2.04742C1.90741 9.64707 1.77572 9.71372 1.69286 9.82663C1.60998 9.93954 1.58584 10.0851 1.62777 10.2187C2.45625 12.8574 4.84589 14.8193 7.72417 15V11.7029C6.59524 11.5628 5.59003 10.8897 5.03456 9.87559Z" fill="#2FC158"/>
<path d="M10.2187 1.6278C10.0851 1.5859 9.93948 1.61007 9.82663 1.69289C9.71372 1.77577 9.64707 1.90744 9.64707 2.04747V4.64884C9.64707 4.80947 9.7347 4.95736 9.87559 5.03456C10.8896 5.59009 11.5628 6.59527 11.7029 7.72417H15C14.8188 4.83965 12.8512 2.45435 10.2187 1.6278Z" fill="#2FC158"/>
<path d="M11.7035 8.60386C11.5039 10.2195 10.2196 11.5039 8.60389 11.7034V14.9997C12.0361 14.7836 14.7833 12.0408 14.9997 8.60386H11.7035Z" fill="#2FC158"/>
</svg>
