<svg width="15" height="12" viewBox="0 0 15 12" fill="none" xmlns="http://www.w3.org/2000/svg">
<path fill-rule="evenodd" clip-rule="evenodd" d="M13.18 0.638272C13.8055 0.820273 14.2982 1.35645 14.4654 2.03729C14.7692 3.27135 14.7692 5.84608 14.7692 5.84608C14.7692 5.84608 14.7692 8.42081 14.4654 9.65487C14.2982 10.3357 13.8055 10.8719 13.18 11.0539C12.0463 11.3845 7.49994 11.3845 7.49994 11.3845C7.49994 11.3845 2.95364 11.3845 1.81986 11.0539C1.19434 10.8719 0.701708 10.3357 0.534516 9.65487C0.230713 8.42081 0.230713 5.84608 0.230713 5.84608C0.230713 5.84608 0.230713 3.27135 0.534516 2.03729C0.701708 1.35645 1.19434 0.820242 1.81986 0.638272C2.95364 0.307617 7.49994 0.307617 7.49994 0.307617C7.49994 0.307617 12.0463 0.307617 13.18 0.638272ZM9.81286 5.84614L6.01304 8.18375V3.5084L9.81286 5.84614Z" fill="#2FC158"/>
</svg>
