<svg width="196" height="137" viewBox="0 0 196 137" fill="none" xmlns="http://www.w3.org/2000/svg">
<path d="M194.839 43.7447C194.039 43.03 193.005 42.7529 192.019 42.8939C190.644 40.9104 188.341 38.183 184.829 35.7036C179.234 31.7511 169.405 27.7792 154.084 30.6281C150.376 24.7115 144.84 18.5907 138.304 13.4715H138.269C137.899 13.1409 137.504 12.8395 137.099 12.5721C131.357 8.24524 124.914 4.75461 118.304 2.79052C97.8411 -3.29621 84.7244 1.6286 77.9148 7.37988C71.1052 13.136 61.0226 24.4149 51.1106 34.493C49.0082 36.6224 48.0717 38.4164 48.1058 39.9478V40.079C48.1399 40.2103 48.1399 40.3804 48.1741 40.5117C48.2424 41.0416 48.4765 41.5764 48.8765 42.0771C49.0424 42.2765 49.2472 42.5439 49.4424 42.7432C49.7448 43.0738 50.0423 43.3412 50.4082 43.5745C50.7106 43.8079 51.0082 44.0072 51.3447 44.2065C52.0472 44.6052 52.813 45.0038 53.6813 45.3733C54.1154 45.5726 54.5788 45.7379 55.0471 45.9373C56.1154 46.3359 57.2812 46.7346 58.5202 47.1332C58.9202 47.2645 59.3543 47.4006 59.7884 47.5319C64.3981 48.9271 70.0028 50.2933 75.7441 51.99C93.8364 57.3134 105.617 73.979 114.665 83.6293C118.172 87.3533 121.041 88.9868 123.577 89.3514C123.977 89.4194 124.377 89.4535 124.777 89.4535C124.977 89.4535 125.211 89.4535 125.411 89.3854C128.582 89.1861 131.284 87.0907 134.191 85.2287C139.83 81.602 161.03 61.1784 158.991 42.9765C158.625 39.8505 157.323 36.3259 155.323 32.6651C166.503 30.7496 176.176 32.3831 183.424 37.4538C186.58 39.6658 188.693 42.116 189.985 43.9294C189.961 43.9537 189.932 43.978 189.907 44.0072C188.619 45.4365 188.741 47.634 190.175 48.9174C191.61 50.2009 193.814 50.0793 195.102 48.65C196.39 47.2207 196.268 45.0233 194.834 43.7398L194.839 43.7447ZM136.201 76.4195C133.865 78.8795 131.831 80.479 129.728 81.0089C124.753 82.2729 119.28 77.6835 107.529 65.1406C91.6755 48.2076 86.7683 51.0663 83.1927 43.0154C82.9927 42.5828 82.7927 42.1501 82.6269 41.6493C79.0221 31.8678 93.573 12.3727 108.397 13.7389C128.392 15.5328 146.752 39.2866 149.82 50.6336C152.859 61.9465 144.113 68.1305 136.201 76.4146V76.4195Z" fill="#2FC158"/>
<path d="M111.802 31.8726L108.695 32.0039L108.563 28.9119C108.529 28.1146 107.86 27.4826 107.06 27.4826H106.992C106.192 27.5166 105.524 28.2167 105.558 29.048L105.69 32.14L102.587 32.2713C101.787 32.3053 101.153 32.9714 101.153 33.7687V33.8367C101.187 34.6681 101.89 35.3001 102.724 35.266L105.826 35.1348L105.958 38.2268C105.992 39.0581 106.695 39.6901 107.529 39.6561C108.363 39.622 108.997 38.922 108.963 38.0906L108.831 34.9986L111.938 34.8674C112.772 34.8334 113.407 34.1333 113.372 33.3019C113.338 32.4706 112.636 31.8386 111.802 31.8726Z" fill="#2FC158"/>
<path d="M136.738 54.693L133.631 54.8243L133.499 51.6983C133.465 50.935 132.796 50.269 131.996 50.269H131.928C131.094 50.337 130.46 51.0322 130.494 51.8344L130.626 54.9264L127.518 55.0576C126.718 55.1257 126.084 55.7917 126.084 56.555V56.6231C126.119 57.4544 126.816 58.0864 127.65 58.0524L130.757 57.9211L130.889 61.0471C130.923 61.8444 131.621 62.5105 132.455 62.4764C133.255 62.4084 133.923 61.7132 133.889 60.911L133.757 57.819L136.865 57.6878C137.699 57.6197 138.333 56.9245 138.299 56.1223C138.265 55.291 137.567 54.659 136.733 54.693H136.738Z" fill="#2FC158"/>
<path d="M73.8466 130.213C74.2808 130.515 74.8125 130.646 75.3149 130.646C75.4807 130.646 75.6466 130.646 75.8173 130.612H75.8515C77.2514 130.344 78.1538 129.012 77.8904 127.549C77.6221 126.154 76.2856 125.254 74.8173 125.522C73.4515 125.789 72.515 127.15 72.7832 128.516C72.9149 129.217 73.2857 129.815 73.8515 130.213H73.8466ZM75.1832 127.452H75.3149C75.6466 127.452 75.8856 127.617 75.949 127.918C76.0173 128.283 75.8173 128.619 75.4807 128.682C75.2807 128.716 75.1149 128.682 74.9783 128.58C74.8759 128.512 74.7442 128.38 74.71 128.147C74.6417 127.816 74.8759 127.515 75.1783 127.447L75.1832 127.452Z" fill="#2FC158"/>
<path d="M122.284 115.074H120.05C119.65 113.611 119.05 112.245 118.28 110.981L119.914 109.352C120.114 109.153 120.114 108.851 119.914 108.652L115.075 103.829C114.875 103.63 114.572 103.63 114.372 103.829L112.636 105.56C111.802 105.093 110.934 104.695 109.997 104.398C111.031 102.269 111.899 100.572 112.533 99.2107C114.47 94.9179 114.768 91.1259 113.333 87.7665C112.333 85.5059 110.563 83.4105 107.929 81.5145C101.451 76.823 95.2802 71.6989 82.1928 62.5834C77.3197 59.19 70.0077 56.8273 62.7688 55.1986H62.7347C61.2323 54.868 59.764 54.5666 58.2958 54.2992C57.53 54.168 56.7592 54.0318 55.9934 53.9006C55.4227 53.7985 54.891 53.7012 54.3593 53.6332C54.3252 53.6332 54.3252 53.5991 54.3252 53.5991C54.1252 53.5991 53.9252 53.5651 53.7252 53.5311C53.4227 53.463 53.1252 53.429 52.7886 53.3998C51.6521 53.2005 50.5545 53.0692 49.4863 52.8991C48.818 52.831 48.1497 52.7338 47.5156 52.6657C44.8425 52.3643 42.1742 52.7678 39.8036 53.8276L31.4574 46.9096C33.594 46.1463 35.5647 44.8142 37.1305 42.9182C41.8718 37.2982 41.1011 28.9119 35.4281 24.1864C29.755 19.495 21.3406 20.2583 16.6334 25.9172C13.8628 29.2085 12.9945 33.4672 13.8628 37.3614C9.85798 37.1961 5.8532 38.8247 3.08253 42.1209C-1.62467 47.7749 -0.85883 56.1612 4.78493 60.8527C10.458 65.5781 18.8724 64.81 23.6137 59.156C25.1844 57.2599 26.1161 55.0625 26.5161 52.8018L33.7257 58.8254C33.4915 59.1268 33.2915 59.4234 33.0915 59.7588C32.8574 60.1575 32.5891 60.5901 32.3891 61.0228C29.3843 61.3534 26.3161 62.0535 23.1406 63.1522C14.6286 66.1129 7.95558 73.9984 6.15075 83.2792C4.38006 92.3267 7.4873 100.878 14.8627 107.364C15.531 107.928 16.1993 108.496 16.8968 108.992C15.5944 115.978 14.4627 122.965 13.4286 129.751C13.0579 132.114 12.8286 134.277 12.7603 136.305H99.2118C99.3777 135.473 99.5435 134.642 99.7484 133.845C100.08 133.976 100.451 134.078 100.783 134.175V136.504C100.783 136.771 101.017 137.005 101.285 137.005H108.129C108.397 137.005 108.631 136.771 108.631 136.504V134.277C110.134 133.947 111.533 133.344 112.802 132.615L114.368 134.146C114.568 134.346 114.87 134.346 115.07 134.146L119.909 129.324C120.109 129.124 120.109 128.823 119.909 128.623L118.372 127.092C119.138 125.794 119.738 124.399 120.109 122.901H122.28C122.548 122.901 122.782 122.668 122.782 122.401V115.58C122.782 115.312 122.548 115.079 122.28 115.079L122.284 115.074ZM17.4724 54.061C15.57 56.3557 12.1652 56.6571 9.897 54.7611C7.59462 52.865 7.29219 49.4716 9.19458 47.211C11.097 44.9163 14.5018 44.6149 16.77 46.5109C19.0724 48.407 19.3748 51.8004 17.4724 54.061ZM23.4479 38.5573C21.1455 36.6613 20.8431 33.2679 22.7455 30.9732C24.6479 28.7126 28.0526 28.4112 30.3258 30.3072C32.6281 32.2032 32.9306 35.5626 31.0282 37.8573C29.1258 40.1179 25.721 40.4534 23.4528 38.5573H23.4479ZM8.09217 83.639C9.72627 75.1895 16.0383 67.6686 23.7796 64.9753C26.3502 64.0759 28.8185 63.4779 31.2574 63.1133C32.8281 62.88 34.3257 62.7827 35.8329 62.7827H36.5354C37.6378 62.8167 38.6036 63.3467 39.2036 64.2461C39.7694 65.0434 39.906 66.074 39.5694 67.0075C39.067 68.3055 37.7987 69.1709 36.3305 69.0688C34.3257 68.9667 31.2233 69.0688 27.8868 70.0994C22.9162 71.6308 17.4724 75.2236 14.8042 83.4056C12.9359 89.1277 13.9018 94.6165 17.609 99.342C17.9066 99.7406 18.2431 100.105 18.6431 100.509C21.8821 104.101 26.8185 107.096 32.6623 109.294C40.0377 111.987 48.818 113.387 57.5982 113.018C57.5982 113.518 57.6665 114.014 57.7299 114.515C57.9299 115.813 58.2616 116.975 58.7641 117.977C53.9935 118.108 42.7108 117.908 31.7257 114.316C26.6185 112.687 21.5796 110.29 17.3066 106.829C16.9066 106.527 16.5407 106.231 16.1749 105.895C9.33116 99.9059 6.46294 91.9912 8.09704 83.639H8.09217ZM77.4514 119.1L79.2904 127.316V127.35C79.5587 128.38 79.3587 129.411 78.788 130.31C78.188 131.21 77.2856 131.842 76.2514 132.041C75.149 132.24 74.0808 132.007 73.2125 131.375C72.3442 130.743 71.8125 129.844 71.6467 128.813L70.4126 120.928C72.9832 120.427 75.4173 119.761 77.4563 119.1H77.4514ZM78.8904 116.537C78.5928 116.669 78.2904 116.771 77.9538 116.868C77.6514 116.97 77.3539 117.067 77.0222 117.169C75.0515 117.801 72.6515 118.502 70.115 118.997C69.7833 119.066 69.4809 119.095 69.1492 119.163C68.8175 119.231 68.515 119.294 68.1833 119.328C66.8468 119.561 65.5102 119.727 64.1786 119.795C63.4762 119.829 62.842 119.663 62.3103 119.328C61.8079 118.997 61.3786 118.531 61.0079 117.962V117.928C60.2714 116.863 59.8714 115.497 59.6714 114.204C59.5738 113.504 59.5397 112.741 59.5738 112.006C59.5738 111.642 59.608 111.272 59.6714 110.908C59.9738 108.346 61.2079 106.017 63.4079 105.453C64.1737 105.254 64.9785 105.054 65.881 104.855C66.1785 104.787 66.5151 104.69 66.8468 104.622C67.1443 104.554 67.4809 104.49 67.8126 104.422C69.9833 103.956 72.2174 103.489 73.8564 103.192C74.2271 103.09 74.5588 103.027 74.8564 102.959L75.3588 102.857L75.6954 105.054L74.393 105.516L68.3492 107.68L67.3834 108.01L66.4517 108.341L65.4176 108.705V115.623L67.5541 115.225L69.4858 114.894L76.2319 113.596L77.1636 113.431L78.1636 113.232L80.9001 112.731L81.6659 115.492C81.066 115.726 80.0952 116.124 78.8953 116.523L78.8904 116.537ZM19.1407 98.1071C15.8042 93.8824 14.97 89.1569 16.6676 84.0036C18.7699 77.4842 22.7747 74.1248 26.8819 72.4573C23.6089 80.5081 21.1406 89.191 19.1407 98.1071ZM77.6904 77.9461C77.8904 78.4468 78.0563 79.0107 78.1929 79.774C79.1928 84.762 76.6905 89.9202 72.1491 92.317L71.4808 92.6476L73.4174 101.233C71.8516 101.564 69.676 102.03 67.5443 102.531L66.1395 93.6831L65.3737 93.615C60.1982 93.0511 56.0958 89.225 55.1251 84.1689C54.5593 81.1742 55.1934 78.0141 56.8617 75.4861L58.0616 75.2527L59.5982 83.3716L67.4078 86.4636L73.7491 80.7415L72.3491 73.3907L72.1833 72.5934L73.3881 72.3601C75.0564 73.4928 76.3588 75.0534 77.227 76.8862C77.3929 77.2168 77.5636 77.5863 77.6953 77.9509L77.6904 77.9461ZM68.6419 109.653L74.8173 107.456L75.7832 111.681L69.1394 112.945L68.637 109.653H68.6419ZM101.085 128.283C103.153 120.432 105.49 114.311 107.597 109.585C108.597 109.853 109.602 110.251 110.602 110.815C111.704 111.447 112.636 112.381 113.27 113.475C118.446 122.488 110.099 131.706 101.085 128.278V128.283Z" fill="#2FC158"/>
<path d="M143.679 111.214C143.679 109.318 142.142 107.753 140.206 107.753C138.435 107.753 136.967 109.119 136.767 110.815L143.679 113.013V111.214Z" fill="#2FC158"/>
<path d="M136.738 117.106L143.679 119.299V114.841L136.738 112.648V117.106Z" fill="#2FC158"/>
<path d="M136.738 123.193L143.679 125.39V121.132L136.738 118.934V123.193Z" fill="#2FC158"/>
<path d="M143.679 127.252L136.738 125.055V128.852H129.996V136.383H150.43V128.852H143.679V127.252Z" fill="#2FC158"/>
</svg>
